<svg xmlns="http://www.w3.org/2000/svg" viewBox="0 0 45.66 45.68"><defs><style>.cls-1{fill:#bf2850}</style></defs><g id="Слой_2" data-name="Слой 2"><g id="Как_мы_работаем" data-name="Как мы работаем"><path class="cls-1" d="M45.66 20.42a17.19 17.19 0 00-.17-1.81 2.16 2.16 0 00-2.39-2H39a1 1 0 01-1.05-.69 8.07 8.07 0 00-.57-1.14 1.2 1.2 0 01.11-1.5c.86-1.14 1.71-2.32 2.45-3.37a2 2 0 00-.23-2.83l-.85-.85-.13-.13a2.16 2.16 0 00-3-.25l-.49.36c-1 .69-1.93 1.39-2.89 2.09a1.05 1.05 0 01-1.3.08 10.22 10.22 0 00-1.15-.57 1.17 1.17 0 01-.77-1.2c0-1.4 0-2.83-.07-4.25A2 2 0 0027.17.27l-.92-.19-.38-.08h-1a2.7 2.7 0 00-1.72 2c-.19.67-.42 1.35-.65 2-.16.47-.33 1-.48 1.43a1.16 1.16 0 01-1.15.92c-.44 0-.89 0-1.37.1a1.14 1.14 0 01-1.11-.53L16 2.69A2.1 2.1 0 0013 2l-.27.14c-.34.18-.69.35-1 .54a2.07 2.07 0 00-1.05 2.54c.44 1.42.85 2.73 1.28 4a1.19 1.19 0 01-.42 1.49 4.75 4.75 0 00-.82.79 1.24 1.24 0 01-1.46.37c-.88-.3-1.78-.59-2.66-.86l-1.04-.31a2.25 2.25 0 00-2.88 1.19l-.14.28c-.17.31-.34.63-.5.95a2.06 2.06 0 00.65 2.77c1.12.84 2.24 1.65 3.33 2.42a1.17 1.17 0 01.53 1.37A8.51 8.51 0 006.33 21a1 1 0 01-.76.92l-1.37.48c-.75.25-1.52.51-2.29.74A2.52 2.52 0 000 24.74v1c0 .16.09.32.14.47.1.35.21.7.29 1.06a2 2 0 002 1.7h4.08a3.28 3.28 0 011 .2.62.62 0 00.82-.17.64.64 0 000-.49.56.56 0 00-.33-.29 4.77 4.77 0 00-1.34-.3c-.88 0-1.77-.05-2.63-.06H2.58c-.76 0-1-.25-1.18-1l-.07-.35c-.06-.32-.12-.65-.17-1a.88.88 0 01.7-1.12l4-1.34a2.08 2.08 0 001.62-1.85 13 13 0 01.23-1.34 2 2 0 00-.93-2.5l-1.54-1.13c-.6-.43-1.2-.86-1.79-1.3a1 1 0 01-.35-1.37c.16-.33.33-.65.5-1l.17-.32c.35-.66.65-.78 1.39-.55l1.19.37c1 .31 2 .64 3 .94a1.92 1.92 0 002-.52l.19-.19a10.07 10.07 0 01.82-.78 2.16 2.16 0 00.7-2.62c-.34-1-.65-2-1-3L11.82 5a.87.87 0 01.51-1.22l1.19-.63c.71-.37 1.07-.29 1.53.36l1 1.35c.5.7 1 1.39 1.52 2.09a2 2 0 002.08.81c.23 0 .45-.08.68-.12s.55-.11.83-.14a2.15 2.15 0 001.92-1.66c.3-1 .63-1.92.94-2.85l.38-1.1a.88.88 0 011.15-.71l1.14.2h.1c.84.16 1 .41 1.06 1.27v3.99a2.23 2.23 0 001.5 2.26 6.75 6.75 0 01.94.46 2.23 2.23 0 002.77-.16c.81-.6 1.66-1.19 2.48-1.76l.77-.54a1 1 0 011.47.1l.89.88c.57.58.6.92.12 1.58l-.93 1.27-1.52 2.1a2.05 2.05 0 00-.15 2.38 8.78 8.78 0 01.54 1.06A2.26 2.26 0 0039 17.83h4.08a1 1 0 011.17 1l.09.55c0 .19.07.37.1.55.16.89 0 1.17-.85 1.45l-1.13.38c-1 .32-1.91.63-2.86 1a2 2 0 00-1.4 1.68 14.9 14.9 0 01-.26 1.47 2 2 0 00.88 2.36c1 .75 2.06 1.52 3.06 2.26l.29.22A1 1 0 0142.5 32c-.16.32-.33.63-.5.95l-.17.32c-.36.68-.67.81-1.38.58l-1.71-.54-2.3-.73a2 2 0 00-2.31.68l-.18.21a4.43 4.43 0 01-.59.64 2.22 2.22 0 00-.69 2.71c.34 1 .66 2 1 3l.24.78a1 1 0 01-.6 1.4l-1.2.62a1 1 0 01-1.49-.36C29.8 41.11 29 40 28.17 38.85a2 2 0 00-2.33-.85 7.63 7.63 0 01-1.21.21 2.18 2.18 0 00-2 1.65c-.34 1-.7 2.12-1 3.15l-.29.85a.9.9 0 01-1.18.68l-.48-.08-.75-.14c-.78-.13-1-.42-1-1.2V39a3.35 3.35 0 00-.31-1.23.59.59 0 00-.62-.37.64.64 0 00-.28.07c-.27.15-.34.47-.19.87a2.79 2.79 0 01.17.86v4.13a2 2 0 001.79 2.06h.12l1.25.22a2 2 0 002.49-1.47c.18-.57.37-1.13.56-1.69l.77-2.45a.89.89 0 01.8-.69h.22a9.71 9.71 0 001.22-.21 1.17 1.17 0 011.37.54c.81 1.15 1.63 2.26 2.39 3.3a2.07 2.07 0 002.8.67l1.43-.75a2 2 0 001-2.57l-.13-.4c-.37-1.19-.76-2.41-1.15-3.61A1.13 1.13 0 0134 35a9.7 9.7 0 00.85-.9 1.22 1.22 0 011.49-.43c1.22.4 2.52.81 4 1.26a2.13 2.13 0 002.58-1.06c.19-.34.37-.69.55-1l.14-.27a2.12 2.12 0 00-.71-3l-1-.72-2.21-1.62a1.15 1.15 0 01-.51-1.34 5.36 5.36 0 00.2-1.21 1.11 1.11 0 01.89-1.11c1-.32 2-.67 3-1l1-.33a1.72 1.72 0 001.39-1.85z"/><path class="cls-1" d="M7.32 44.3a2.86 2.86 0 00.41-.37l1.13-1.15q4.48-4.53 9-9.07A5.81 5.81 0 0121.55 32H22a15.32 15.32 0 002.62-.38 8.47 8.47 0 006.19-8.82 1.43 1.43 0 00-.85-1.39 1.42 1.42 0 00-1.53.43c-.91.93-1.81 1.83-2.82 2.82a2.56 2.56 0 01-3.64.05l-.6-.6-.23-.23a2.58 2.58 0 010-4l1-1c.6-.59 1.21-1.2 1.81-1.82a1.36 1.36 0 00.37-1.31 1.31 1.31 0 00-1.05-.87 6.8 6.8 0 00-3 .15 8.78 8.78 0 00-6.6 8.4 6 6 0 01-1.85 4.47c-2.45 2.42-4.92 4.9-7.31 7.29l-2.77 2.73-.06.08a2.21 2.21 0 00-.26.28.55.55 0 00.12.84c.19.14.45.24.89-.2l2.29-2.29c2.69-2.69 5.39-5.38 8.07-8.08a6.68 6.68 0 001.93-4c0-.33 0-.67.07-1a13.65 13.65 0 01.14-1.42A7.32 7.32 0 0122.28 16h.64l.06.32-.85.85L20.27 19A4 4 0 0019 21.8a5.42 5.42 0 003.62 4.66 4 4 0 001 .17 3.8 3.8 0 003-1.21c.63-.64 1.26-1.27 1.9-1.9l.84-.85.32.1v.63a6.51 6.51 0 01-.08 1.17 7.43 7.43 0 01-7.48 6.29A7 7 0 0017 33l-7 7-3.2 3.2a1.34 1.34 0 00-.23.25.53.53 0 000 .73.51.51 0 00.75.12z"/><path class="cls-1" d="M20.55 35.27l1.5.17h.38a12.92 12.92 0 009.44-3.66 12.64 12.64 0 10-21.43-6.68.82.82 0 00.3.57.56.56 0 00.45.07c.35-.06.52-.37.44-.81a12 12 0 01-.07-3.74 11.42 11.42 0 1112.84 13 12.45 12.45 0 01-3.61-.08.71.71 0 00-.2 0 .58.58 0 00-.64.49.52.52 0 00.05.4.77.77 0 00.55.27z"/></g></g></svg>