<svg xmlns="http://www.w3.org/2000/svg" viewBox="0 0 43.95 43.97"><defs><style>.cls-1{fill:#bf2850}</style></defs><g id="Слой_2" data-name="Слой 2"><g id="Как_мы_работаем" data-name="Как мы работаем"><path class="cls-1" d="M17 29.71a16.17 16.17 0 0015.47 2.76 16.46 16.46 0 0011.24-18.68A16.7 16.7 0 0031 .43c-.59-.12-1.19-.21-1.8-.3L28.38 0h-2.21a.62.62 0 01-.26.07A16.59 16.59 0 0019.6 1.9a16.77 16.77 0 00-8 20.14 17 17 0 003.07 5.39l.22.26-2.73 2.74-.45-.51a6.28 6.28 0 00-.43-.49 1.27 1.27 0 00-.85-.48 1.35 1.35 0 00-.87.48l-1.48 1.43-7.49 7.5a3.73 3.73 0 00-.44.57l-.15.21v.38l.09.15a1.79 1.79 0 00.29.4q1.55 1.59 3.14 3.16l.36.36a1 1 0 001.51 0Q10 39 14.64 34.35a1.11 1.11 0 00.38-.76 1.05 1.05 0 00-.38-.74 4.84 4.84 0 00-.57-.48l-.54-.44 2.77-2.77.38.31zM4.65 41.56l-.3-.23-2-2 8-8 2.27 2.26zm7.87-24.91A14.67 14.67 0 0116.88 6.2a14.52 14.52 0 0110.45-4.32 14.81 14.81 0 0114.76 14.77 14.8 14.8 0 01-14.78 14.79 14.82 14.82 0 01-14.79-14.79z"/><path class="cls-1" d="M27.32 5.25a11.4 11.4 0 00-8.08 19.46 11.32 11.32 0 008.07 3.36 11.42 11.42 0 0011.41-11.38 11.42 11.42 0 00-11.4-11.44zM34 23.42a9.49 9.49 0 01-6.7 2.78 9.55 9.55 0 010-19.09 9.56 9.56 0 019.52 9.56A9.46 9.46 0 0134 23.42z"/><path class="cls-1" d="M31.76 13.5c-1.71 1.7-3.41 3.41-5.12 5.12a1.4 1.4 0 00-.16.22l-.44.6-.49-.59-.19-.23c-.86-.85-1.71-1.7-2.56-2.56a1 1 0 00-.71-.33h-.24a.91.91 0 00-.68.63 1 1 0 00.3 1q1.52 1.54 3.05 3.07l.67.67a1 1 0 001.6 0l6.3-6.3a.95.95 0 10-1.33-1.32z"/></g></g></svg>