<svg xmlns="http://www.w3.org/2000/svg" viewBox="0 0 56.51 30.53"><defs><style>.cls-1{fill:#bf2850}</style></defs><g id="Слой_2" data-name="Слой 2"><g id="Как_мы_работаем" data-name="Как мы работаем"><path class="cls-1" d="M56.5 23.09v-2.73a5.83 5.83 0 00-.76-3l-.26-.46c-1.43-2.56-2.92-5.21-4.36-7.83A2.31 2.31 0 0049 7.83h-6.52V1.67A1.5 1.5 0 0040.81 0H11.44a1.49 1.49 0 00-1.67 1.71v2.83H6c-.59 0-.94.27-.94.74a.71.71 0 00.19.52 1 1 0 00.75.26h10.54a.93.93 0 00.71-.25.69.69 0 00.19-.53c0-.46-.35-.73-.91-.73h-5.21v-3h29.57V25H28.21c-.44 0-.54-.23-.62-.51A4.7 4.7 0 0023 21a4.72 4.72 0 00-4.56 3.47c-.13.44-.35.52-.74.52h-6.37v-5.3h2.71a.71.71 0 00.75-.7.75.75 0 00-.67-.79 1.72 1.72 0 00-.31 0H3a1.08 1.08 0 00-.78.26A.73.73 0 002 19c0 .64.63.74 1 .74h6.77v5.78c0 .84.23 1.07 1.07 1.07h6.77a.76.76 0 01.87.63A4.71 4.71 0 0023 30.53a4.72 4.72 0 004.51-3.39.73.73 0 01.84-.61H44l.1.33c0 .12.07.22.1.33a4.72 4.72 0 004.3 3.32h.29A4.48 4.48 0 0053 27.75a1.62 1.62 0 011.94-1.23 1.47 1.47 0 001.16-.33 1.71 1.71 0 00.45-1.28zM23.05 29a3.15 3.15 0 01-2.22-.9 3.31 3.31 0 01-1-2.38A3.16 3.16 0 0123 22.56a3.18 3.18 0 013.2 3.21A3.21 3.21 0 0123.05 29zm28.83-3.23A3.18 3.18 0 0148.72 29a3.11 3.11 0 01-2.23-.92 3.23 3.23 0 012.19-5.52 3.15 3.15 0 012.25.91 3.24 3.24 0 011 2.3zm3.12-.93v.1h-.36c-1.07 0-1.12 0-1.51-1a4.72 4.72 0 00-4.42-3A4.71 4.71 0 0044.33 24c-.28.73-.39.95-.89.95a5 5 0 01-.73-.08h-.11V9.39h6.3a1.12 1.12 0 011.09.66c1.52 2.77 3.09 5.57 4.48 8a4.61 4.61 0 01.53 2.4v3.1z"/><path class="cls-1" d="M8.9 14.14H7.27a.72.72 0 00-.73.73.75.75 0 00.68.78h15.61a1.72 1.72 0 00.33 0 .73.73 0 00.61-.8.71.71 0 00-.66-.7 1.93 1.93 0 00-.34 0H11.29V9a.8.8 0 00-.76-.83.77.77 0 00-.76.83v5.15H8.9zM6.64 9.46H.82c-.63 0-.82.16-.82.72a.85.85 0 00.17.62.87.87 0 00.64.2h5.81c.59 0 .92-.27.93-.76a.68.68 0 00-.19-.52 1 1 0 00-.72-.26z"/></g></g></svg>