<svg xmlns="http://www.w3.org/2000/svg" viewBox="0 0 65.86 93.89"><g data-name="Слой 2"><g data-name="Онлайн диагностика"><text transform="translate(11.27 90.26)" fill="#fff" font-size="15" font-family="Magistral-Book,Magistral">Поч<tspan x="27.97" y="0" letter-spacing="-.02em">т</tspan><tspan x="34.9" y="0">а</tspan></text><circle cx="32.93" cy="32.93" r="26.51" fill="#2c5ab7"/><circle cx="32.93" cy="32.93" r="32.43" fill="none" stroke="#fff" stroke-miterlimit="10"/><path d="M20.23 40.88a2.67 2.67 0 002.34 1.83h20.8a3.73 3.73 0 00.46-.09 2.65 2.65 0 001.92-2.23v-14.7a2.68 2.68 0 00-2.25-2.64A3.27 3.27 0 0043 23H22.87a2.67 2.67 0 00-2.5 1.48 2.53 2.53 0 00-.26.87.53.53 0 010 .12v14.97a3.54 3.54 0 00.12.44zm23.06.38a.3.3 0 01-.25.2h-.17a3.42 3.42 0 01-.44 0H22.85a.3.3 0 01-.25-.2.28.28 0 01.08-.31l7.68-7.09a.25.25 0 01.23-.08.26.26 0 01.21.11 2.63 2.63 0 002.13 1 2.61 2.61 0 002.14-1.06.26.26 0 01.21-.11.32.32 0 01.23.07l7.69 7.1a.33.33 0 01.09.37zM44 25.6a.33.33 0 01.24-.08.34.34 0 01.3.27v13.59a2.34 2.34 0 010 .38v.14a.29.29 0 01-.19.26h-.11a.3.3 0 01-.2-.08L39.61 36l-3.19-2.94a.31.31 0 01-.09-.22.28.28 0 01.09-.22zm-21.11-1.36h.14a2.23 2.23 0 01.36 0H42.5a1.72 1.72 0 01.37 0h.17a.29.29 0 01.24.2.32.32 0 01-.08.31l-.83.77-4.5 4.18-3.81 3.53a1.44 1.44 0 01-1.12.52 1.5 1.5 0 01-1.15-.59c-.07-.08-1.44-1.34-2.77-2.57l-3.43-3.17-2.79-2.55a.39.39 0 01-.16-.39.34.34 0 01.25-.24zm-1.6 12.47V25.78a.29.29 0 01.25-.26.39.39 0 01.3.06l7.57 7.05a.29.29 0 01.1.22.32.32 0 01-.1.22L24 38.1l-1.92 1.77A1.71 1.71 0 0022 40l-.09.12a.3.3 0 01-.23.11h-.08a.32.32 0 01-.22-.24v-.4a2.09 2.09 0 010-.25z" fill="#fff"/></g></g></svg>