<svg xmlns="http://www.w3.org/2000/svg" viewBox="0 0 17.7 27.4"><path d="M10.13 4.9H2.61A2.36 2.36 0 00.25 7.22v17.61a2.34 2.34 0 002.34 2.32h7.53a2.33 2.33 0 002.33-2.31V7.21a2.32 2.32 0 00-2.32-2.31zM5.29 6.29h2.18a.35.35 0 110 .69H5.29a.35.35 0 110-.69zM4 6.4a.36.36 0 01.49 0 .35.35 0 01.1.24.34.34 0 01-.37.36.35.35 0 01-.22-.11.33.33 0 01-.1-.25.31.31 0 01.1-.24zm2.31 20.06a1 1 0 010-2.08 1 1 0 110 2.08zm5.07-2.79H1.47V8.2h9.91v15.47zm1.9-22.52a3.28 3.28 0 013.27 3.28.45.45 0 00.45.45.45.45 0 00.45-.45 4.11 4.11 0 00-1.22-2.95 4.15 4.15 0 00-3-1.23.45.45 0 000 .9z" fill="#bf2850" stroke="#bf2850" stroke-miterlimit="10" stroke-width=".5" data-name="Слой 2"/></svg>