<svg xmlns="http://www.w3.org/2000/svg" viewBox="0 0 64.53 64.53"><defs><style>.cls-3{fill:none}</style></defs><g id="Слой_2" data-name="Слой 2"><g id="Преимущества"><circle cx="32.27" cy="32.27" r="31.67" stroke="#bf2850" stroke-miterlimit="10" stroke-width="1.2" fill="none"/><path d="M15.53 28.1a7.43 7.43 0 01.26-.71 2.52 2.52 0 012.38-1.46h1.84c.08-.74.16-1.45.23-2.17s.17-1.67.28-2.5a2.54 2.54 0 012.77-2.16l11.47 1 10.74.89c.62 0 1.24.09 1.85.18a2.48 2.48 0 012.16 2.63c-.06 1.17-.18 2.34-.28 3.51q-.24 3-.5 5.95c-.16 1.88-.3 3.77-.48 5.65a2.51 2.51 0 01-2.53 2.25c-.34 0-.68 0-1.06-.06v2a5.16 5.16 0 01-.11 1.11A2.52 2.52 0 0142.21 46H18.35a2.55 2.55 0 01-2.77-2.1.41.41 0 00-.05-.09zm27.81 7.19H16.86v7.94a1.27 1.27 0 001.46 1.46h23.56a1.28 1.28 0 001.46-1.46v-7.94zm-22-9.37h20.45a4.09 4.09 0 01.92.08 2.55 2.55 0 011.95 2.62v11.07c.37 0 .68.07 1 .08a1.21 1.21 0 001.29-1.14l.45-5.26c.26-3.15.53-6.3.79-9.45a1.28 1.28 0 00-1.31-1.54c-1.71-.13-3.42-.28-5.13-.42l-6.8-.57-6-.51-5.75-.48a1.2 1.2 0 00-1.34 1.09c-.1.69-.17 1.38-.24 2.08s-.19 1.54-.27 2.35zm-4.46 5.26v2.73h26.43v-2.73zm26.44-1.35V28.4a1.2 1.2 0 00-1.13-1.14h-23.9a2.09 2.09 0 00-.43 0 1.06 1.06 0 00-.94.9 12.8 12.8 0 000 1.64zm-6 12.89h-3c-.58 0-.8-.22-.8-.8v-3.91c0-.54.23-.77.76-.77h6.17c.54 0 .78.24.78.8v3.87c0 .57-.24.81-.81.81zm-2.5-4.14v2.79h5v-2.79z" fill="#bf2850"/><path class="cls-3" d="M34.31 42.72h6.1c.57 0 .81-.24.81-.81V38c0-.56-.24-.8-.78-.8h-6.17c-.53 0-.76.23-.76.77v3.91c0 .62.22.84.8.84z"/><path class="cls-3" d="M47.35 21.12c-.61-.09-1.23-.13-1.85-.18l-10.74-.89-11.47-1a2.54 2.54 0 00-2.77 2.16c-.11.83-.19 1.67-.28 2.5s-.15 1.43-.23 2.17h-1.84a2.52 2.52 0 00-2.38 1.46 7.43 7.43 0 00-.26.71v15.79a.22.22 0 01.05.08A2.55 2.55 0 0018.35 46h23.86a2.52 2.52 0 002.34-1.85 5.16 5.16 0 00.11-1.11v-2c.38 0 .72.06 1.06.06a2.51 2.51 0 002.53-2.25c.18-1.88.32-3.77.48-5.65s.34-4 .5-5.95c.1-1.17.22-2.34.28-3.51a2.48 2.48 0 00-2.16-2.62zm-4 14.54v7.57a1.28 1.28 0 01-1.46 1.46H18.32a1.27 1.27 0 01-1.46-1.46v-7.94h26.48zm-26.46-1.75v-2.73h26.42v2.73zm26.44-4.08H16.9a12.8 12.8 0 010-1.64 1.06 1.06 0 01.94-.9 2.09 2.09 0 01.43 0h23.9a1.2 1.2 0 011.13 1.14c.06.43.03.9.03 1.4zm4.06 3.55l-.45 5.26a1.21 1.21 0 01-1.29 1.14c-.31 0-.62-.05-1-.08V28.63A2.55 2.55 0 0042.71 26a4.09 4.09 0 00-.92-.08H21.35c.08-.81.16-1.58.24-2.34s.14-1.39.24-2.08a1.2 1.2 0 011.34-1.09l5.75.48 6 .51 6.8.57c1.71.14 3.42.29 5.13.42a1.28 1.28 0 011.31 1.54c-.24 3.15-.51 6.3-.77 9.45z"/></g></g></svg>