<svg xmlns="http://www.w3.org/2000/svg" viewBox="0 0 43.95 43.97"><defs><style>.cls-1{fill:#bf2850;}</style></defs><g id="Слой_2" data-name="Слой 2"><g id="Как_мы_работаем" data-name="Как мы работаем"><path class="cls-1" d="M17,29.71a16.17,16.17,0,0,0,15.47,2.76A16.46,16.46,0,0,0,43.71,13.79,16.7,16.7,0,0,0,31,.43c-.59-.12-1.19-.21-1.8-.3L28.38,0H26.17a.62.62,0,0,1-.26.07A16.59,16.59,0,0,0,19.6,1.9a16.77,16.77,0,0,0-8,20.14,17,17,0,0,0,3.07,5.39l.22.26-2.73,2.74-.45-.51a6.28,6.28,0,0,0-.43-.49,1.27,1.27,0,0,0-.85-.48,1.35,1.35,0,0,0-.87.48L8.08,30.86.59,38.36a3.73,3.73,0,0,0-.44.57L0,39.14v.38l.09.15a1.79,1.79,0,0,0,.29.4q1.55,1.59,3.14,3.16l.36.36a1,1,0,0,0,1.51,0Q10,39,14.64,34.35a1.11,1.11,0,0,0,.38-.76,1.05,1.05,0,0,0-.38-.74,4.84,4.84,0,0,0-.57-.48l-.54-.44,2.77-2.77.38.31ZM4.65,41.56l-.3-.23-2-2,8-8,2.27,2.26Zm7.87-24.91A14.67,14.67,0,0,1,16.88,6.2,14.52,14.52,0,0,1,27.33,1.88,14.81,14.81,0,0,1,42.09,16.65,14.8,14.8,0,0,1,27.31,31.44h0A14.82,14.82,0,0,1,12.52,16.65Z"/><path class="cls-1" d="M27.32,5.25h0a11.4,11.4,0,0,0-8.08,19.46,11.32,11.32,0,0,0,8.07,3.36h0A11.42,11.42,0,0,0,38.72,16.69,11.42,11.42,0,0,0,27.32,5.25ZM34,23.42A9.49,9.49,0,0,1,27.3,26.2h0a9.55,9.55,0,0,1,0-19.09h0a9.56,9.56,0,0,1,9.52,9.56A9.46,9.46,0,0,1,34,23.42Z"/><path class="cls-1" d="M31.76,13.5c-1.71,1.7-3.41,3.41-5.12,5.12a1.4,1.4,0,0,0-.16.22l-.44.6-.49-.59-.19-.23c-.86-.85-1.71-1.7-2.56-2.56a1,1,0,0,0-.71-.33l-.24,0a.91.91,0,0,0-.68.63,1,1,0,0,0,.3,1q1.52,1.54,3.05,3.07l.67.67a1,1,0,0,0,1.6,0l6.3-6.3a.95.95,0,1,0-1.33-1.32Z"/></g></g></svg>