<svg xmlns="http://www.w3.org/2000/svg" viewBox="0 0 36.29 36.32"><defs><style>.cls-1{fill:#bf2850;}</style></defs><g id="Слой_2" data-name="Слой 2"><g id="Как_мы_работаем" data-name="Как мы работаем"><path class="cls-1" d="M30.09,34.92c1.33-1.29,2.32-2.31,3.2-3.32a3.11,3.11,0,0,0,0-4.2c-1.46-1.54-3-3.13-5-5A2.88,2.88,0,0,0,24.82,22a9,9,0,0,0-1.51,1.21c-.5.47-.94.92-1.41,1.4-.19.21-.4.41-.6.62l-.13.13L21,25.24,20.49,25c-.37-.2-.72-.38-1.07-.6a24.53,24.53,0,0,1-4.71-4,20.56,20.56,0,0,1-3.55-4.86.6.6,0,0,1,.14-.8l.56-.55c.69-.69,1.41-1.4,2.06-2.14A3,3,0,0,0,13.9,8c-1.74-1.86-3.3-3.45-4.79-4.84a3.13,3.13,0,0,0-4.6,0C3.71,3.77,3,4.55,2.24,5.3l-.72.75A5.07,5.07,0,0,0,.16,8.66c0,.28-.08.57-.12.86,0,.13,0,.26,0,.38v.49c0,.16,0,.36.07.55a11,11,0,0,0,.18,1.28,20.56,20.56,0,0,0,1.94,5.43A37.25,37.25,0,0,0,15.64,32.42a26.2,26.2,0,0,0,7.43,3.42c.51.13,1,.22,1.55.3l.76.13.19,0h1.36l.22-.05A5.05,5.05,0,0,0,30.09,34.92Zm-3.85-.19a4.7,4.7,0,0,1-.53,0,17.37,17.37,0,0,1-6.12-1.91A35.62,35.62,0,0,1,4.87,19.22a23.34,23.34,0,0,1-3-7.15l0-.11a4,4,0,0,1-.09-.48c0-.3-.06-.59-.09-.88l0-.39A4.27,4.27,0,0,1,3,6.77c.48-.46,1-.93,1.42-1.4l1-1a1.72,1.72,0,0,1,2.17-.47,2.93,2.93,0,0,1,.6.45C9.36,5.58,10.54,6.77,11.73,8l.63.64.23.25a1.61,1.61,0,0,1,0,2.36c-.8.85-1.65,1.67-2.37,2.37-1.06,1-1.11,1.28-.51,2.58a18.56,18.56,0,0,0,3,4.4,26.49,26.49,0,0,0,5.86,5.16,22.74,22.74,0,0,0,2,1.11,1.3,1.3,0,0,0,1.62-.32l1.61-1.6.86-.86.32-.31a1.63,1.63,0,0,1,2.44.05c.81.79,1.6,1.58,2.39,2.38l.82.81c.44.45.91.91,1.34,1.38a1.66,1.66,0,0,1,.06,2.28,2.64,2.64,0,0,1-.35.4l-.85.88c-.51.51-1,1-1.51,1.54A4.07,4.07,0,0,1,26.24,34.73Z"/><path class="cls-1" d="M35.47,12.92A19.35,19.35,0,0,0,30,4.74,19.66,19.66,0,0,0,21.65.3c-.36-.09-.72-.16-1-.22L20.19,0a.83.83,0,0,0-.84.64.78.78,0,0,0,.49.88,2.74,2.74,0,0,0,.53.14,17.5,17.5,0,0,1,7.29,3.2,17.88,17.88,0,0,1,6.66,9.73q.12.44.21.87c.07.3.13.61.22.91a.77.77,0,0,0,.92.56.84.84,0,0,0,.51-.33.74.74,0,0,0,.09-.59l-.09-.38A25.72,25.72,0,0,0,35.47,12.92Z"/><path class="cls-1" d="M22.71,7.52a10.05,10.05,0,0,0-2.79-.83.9.9,0,0,0-.65.24.83.83,0,0,0-.22.57c0,.41.26.68.76.78a10.11,10.11,0,0,1,7.5,6,9.9,9.9,0,0,1,.53,1.65l.21.74a.82.82,0,0,0,1,.63.81.81,0,0,0,.6-1A11.78,11.78,0,0,0,22.71,7.52Z"/></g></g></svg>