<svg xmlns="http://www.w3.org/2000/svg" viewBox="0 0 42.09 44.6"><defs><style>.cls-1{fill:#fff;}</style></defs><g id="Слой_2" data-name="Слой 2"><g id="Как_мы_работаем" data-name="Как мы работаем"><path class="cls-1" d="M32.84,5.41c0,2.37,0,4.74,0,7.11v9l1.85.32c0-1.68,0-3.35,0-5,0-4.33,0-8.42-.06-12.59C34.58,1.72,32.52,0,29.51,0L17.07,0,5.3,0C1.9,0,0,2,0,5.43,0,15.58,0,25.64,0,35.35c0,3.68,1.81,5.48,5.51,5.5h14.4a7.13,7.13,0,0,0,.79-.05h.12a2.2,2.2,0,0,0-2.6-1.93c-3.37.12-6.8.09-10.12.06l-2.87,0C3,38.88,2,37.82,2,35.65q0-15.19,0-30.39C2,3,3.07,1.94,5.35,1.94q12,0,24.06,0C31.7,1.94,32.83,3.08,32.84,5.41Z"/><path class="cls-1" d="M31.58,23.42h0A10.64,10.64,0,1,0,39,26.57,10.43,10.43,0,0,0,31.58,23.42Zm0,19.55h0a8.94,8.94,0,1,1,0-17.88h0a8.77,8.77,0,0,1,6.27,2.62A9,9,0,0,1,31.56,43Z"/><path class="cls-1" d="M8.82,14.14c-.27,0-.6.29-.92.58a.38.38,0,0,0,0,.41,2.22,2.22,0,0,0,1,.57c2.06.07,4.16.06,6.2.05H25.77c.53,0,1.06,0,1.29-.28a.66.66,0,0,0,.12-.55,1.91,1.91,0,0,0-1.32-.78C20.16,14.06,14.43,14.06,8.82,14.14Z"/><path class="cls-1" d="M8.92,19.6c-.53,0-1,0-1.26.29a.67.67,0,0,0-.09.58c0,.25.85.74,1.36.76,2.05.07,4.15.06,6.17.05H17v0h2.47c2.06,0,4.2,0,6.29-.05a2,2,0,0,0,1.37-.73.7.7,0,0,0-.1-.58,1.85,1.85,0,0,0-1.26-.29Z"/><path class="cls-1" d="M9,8.53c-.49,0-1.06,0-1.31.26a.75.75,0,0,0-.19.58c0,.73.46.82,1.42.82H19.65c2,0,4.1,0,6.14,0a2,2,0,0,0,1.38-.75.68.68,0,0,0-.1-.57c-.21-.25-.74-.29-1.27-.29Z"/><text/><text/><path class="cls-1" d="M34.26,31.19l-2.48,3.06L30.39,36l-.19-.18c-.28-.25-.53-.51-.77-.75a7.38,7.38,0,0,0-1.55-1.33,2.51,2.51,0,0,0-1.13-.27,1.17,1.17,0,0,0-.64.15.83.83,0,0,0-.42.62,1.61,1.61,0,0,0,.58,1.14l.82.78c.75.72,1.51,1.44,2.25,2.19a1.69,1.69,0,0,0,1.21.62,1.76,1.76,0,0,0,1.18-.81c1.11-1.42,2.24-2.81,3.37-4.21l1-1.21a2,2,0,0,0,.61-1.36,1.1,1.1,0,0,0-.51-.74C35.53,30.1,35,30.27,34.26,31.19Z"/></g></g></svg>