<svg xmlns="http://www.w3.org/2000/svg" viewBox="0 0 56.51 30.53"><defs><style>.cls-1{fill:#bf2850;}</style></defs><g id="Слой_2" data-name="Слой 2"><g id="Как_мы_работаем" data-name="Как мы работаем"><path class="cls-1" d="M56.5,23.09V20.36a5.83,5.83,0,0,0-.76-3l-.26-.46c-1.43-2.56-2.92-5.21-4.36-7.83A2.31,2.31,0,0,0,49,7.83H42.48V5.47c0-1.27,0-2.53,0-3.8A1.5,1.5,0,0,0,40.81,0H11.44A1.49,1.49,0,0,0,9.77,1.71V4.54H6c-.59,0-.94.27-.94.74a.71.71,0,0,0,.19.52A1,1,0,0,0,6,6.06c3.72,0,7.17,0,10.54,0a.93.93,0,0,0,.71-.25.69.69,0,0,0,.19-.53c0-.46-.35-.73-.91-.73H11.32v-3H40.89V25l-.22,0H28.21c-.44,0-.54-.23-.62-.51A4.7,4.7,0,0,0,23,21h0a4.72,4.72,0,0,0-4.56,3.47c-.13.44-.35.52-.74.52H11.33V19.69h.91c.62,0,1.2,0,1.8,0a.71.71,0,0,0,.75-.7.75.75,0,0,0-.67-.79,1.72,1.72,0,0,0-.31,0H3a1.08,1.08,0,0,0-.78.26A.73.73,0,0,0,2,19c0,.64.63.74,1,.74H9.77v5.78c0,.84.23,1.07,1.07,1.07h1.35c1.78,0,3.61,0,5.42,0h0a.76.76,0,0,1,.87.63A4.71,4.71,0,0,0,23,30.53H23a4.72,4.72,0,0,0,4.51-3.39.73.73,0,0,1,.84-.61h0q5,0,9.9,0H44l.1.33c0,.12.07.22.1.33a4.72,4.72,0,0,0,4.3,3.32h.29A4.48,4.48,0,0,0,53,27.75a1.62,1.62,0,0,1,1.94-1.23,1.47,1.47,0,0,0,1.16-.33,1.71,1.71,0,0,0,.45-1.28ZM23.05,29h0a3.15,3.15,0,0,1-2.22-.9,3.31,3.31,0,0,1-1-2.38A3.16,3.16,0,0,1,23,22.56h0a3.18,3.18,0,0,1,3.2,3.21A3.21,3.21,0,0,1,23.05,29Zm28.83-3.23h0A3.18,3.18,0,0,1,48.72,29h0a3.11,3.11,0,0,1-2.23-.92,3.23,3.23,0,0,1,2.19-5.52h0a3.15,3.15,0,0,1,2.25.91,3.24,3.24,0,0,1,1,2.3ZM55,24.84v.1l-.1,0-.09,0-.17,0c-1.07,0-1.12,0-1.51-1a4.72,4.72,0,0,0-4.42-3h0a4.71,4.71,0,0,0-4.38,3.06c-.28.73-.39.95-.89.95a5,5,0,0,1-.73-.08h-.11V9.39l.3,0h6a1.12,1.12,0,0,1,1.09.66c1.52,2.77,3.09,5.57,4.48,8A4.61,4.61,0,0,1,55,20.45c0,1,0,2.08,0,3.1Z"/><path class="cls-1" d="M8.9,14.14c-.56,0-1.1,0-1.63,0a.72.72,0,0,0-.73.73.75.75,0,0,0,.68.78H22.83a1.72,1.72,0,0,0,.33,0,.73.73,0,0,0,.61-.8.71.71,0,0,0-.66-.7,1.93,1.93,0,0,0-.34,0H11.29V9.35c0-.12,0-.23,0-.35a.8.8,0,0,0-.76-.83h0A.77.77,0,0,0,9.77,9c0,1.17,0,2.34,0,3.54v1.61H8.9Z"/><path class="cls-1" d="M6.64,9.46c-.69,0-1.38,0-2.07,0H.82c-.63,0-.82.16-.82.72a.85.85,0,0,0,.17.62A.87.87,0,0,0,.81,11H6.62c.59,0,.92-.27.93-.76a.68.68,0,0,0-.19-.52A1,1,0,0,0,6.64,9.46Z"/></g></g></svg>