<svg xmlns="http://www.w3.org/2000/svg" viewBox="0 0 41.62 32.94"><defs><style>.cls-1{fill:#bf2850;}</style></defs><g id="Слой_2" data-name="Слой 2"><g id="Как_мы_работаем" data-name="Как мы работаем"><path class="cls-1" d="M35.78,26.81l.44,0c.29,0,.57,0,.85,0h0a3,3,0,0,0,3-2.66c.14-1.59.27-3.21.4-4.77l.18-2.19L40.93,14c.11-1.36.23-2.71.34-4.07,0-.4.07-.81.11-1.22.09-1,.18-2.06.24-3.09a3,3,0,0,0-2.56-3.12c-.58-.08-1.18-.13-1.76-.17l-.51,0-6-.5-7.26-.6L16.3.59,9.42,0A3,3,0,0,0,6.14,2.56C6.05,3.25,6,4,5.91,4.64c0,.33-.07.67-.11,1L5.5,8.43H3.12A3,3,0,0,0,.3,10.17a3.51,3.51,0,0,0-.21.57L0,11V30.35H0a.31.31,0,0,1,.05.1,3,3,0,0,0,3.3,2.49h29c.12,0,.24,0,.35,0a3,3,0,0,0,2.76-2.18,6.72,6.72,0,0,0,.14-1.35c0-.57,0-1.13,0-1.72,0-.25,0-.5,0-.75v-.13ZM1.46,11.08A1.44,1.44,0,0,1,2.72,9.86a2.88,2.88,0,0,1,.55,0H32.73a1.61,1.61,0,0,1,1.51,1.52,12,12,0,0,1,0,1.2v.7H1.44v-.13c0-.21,0-.41,0-.62A8.46,8.46,0,0,1,1.46,11.08Zm32.76,3.58v3.61H1.42V14.66Zm0,15a1.7,1.7,0,0,1-1.93,1.93h-29a1.69,1.69,0,0,1-1.92-1.93V19.72H34.26Zm1.38-18a3,3,0,0,0-2.31-3.11,4.92,4.92,0,0,0-1.11-.1H6.9L7,7.25c.07-.62.13-1.23.19-1.85l.06-.5c.07-.67.14-1.37.23-2.06A1.6,1.6,0,0,1,9.29,1.39l5,.42L33.56,3.42l4.93.41a1.93,1.93,0,0,1,1.37.6,1.92,1.92,0,0,1,.37,1.43q-.3,3.41-.58,6.8l-.4,4.85c-.18,2.16-.37,4.31-.55,6.47A1.62,1.62,0,0,1,37,25.51H37l-.8-.06-.41,0h-.12V11.65Z"/><path class="cls-1" d="M30.56,22.37c-2.53,0-5.06,0-7.6,0-.58,0-.81.23-.82.83V28c0,.64.23.86.87.86h7.52c.63,0,.87-.24.87-.87V23.23C31.4,22.61,31.16,22.37,30.56,22.37ZM30,27.46H23.56V23.78H30Z"/></g></g></svg>