<svg xmlns="http://www.w3.org/2000/svg" viewBox="0 0 163.97 20.56"><defs><style>.cls-1,.cls-2{fill:#ff8140;}.cls-2{font-size:18.43px;font-family:Montserrat-SemiBold, Montserrat;font-weight:600;}.cls-3{letter-spacing:0.02em;}.cls-4{letter-spacing:-0.02em;}</style></defs><g id="Слой_2" data-name="Слой 2"><g id="Отзывы"><polygon class="cls-1" points="12.52 5.99 19.12 6.95 14.34 11.61 15.47 18.19 9.56 15.08 3.65 18.18 4.78 11.6 0 6.94 6.61 5.99 9.56 0 12.52 5.99"/><polygon class="cls-1" points="34.36 5.99 40.97 6.95 36.19 11.61 37.31 18.19 31.41 15.08 25.5 18.18 26.63 11.6 21.85 6.94 28.45 5.99 31.41 0 34.36 5.99"/><polygon class="cls-1" points="56.21 5.99 62.81 6.95 58.03 11.61 59.16 18.19 53.25 15.08 47.34 18.18 48.47 11.6 43.69 6.94 50.3 5.99 53.26 0 56.21 5.99"/><polygon class="cls-1" points="78.06 5.99 84.66 6.95 79.88 11.61 81.01 18.19 75.1 15.08 69.19 18.18 70.32 11.6 65.54 6.94 72.15 5.99 75.1 0 78.06 5.99"/><polygon class="cls-1" points="99.9 5.99 106.51 6.95 101.73 11.61 102.85 18.19 96.95 15.08 91.04 18.18 92.17 11.6 87.39 6.94 93.99 5.99 96.95 0 99.9 5.99"/><text class="cls-2" transform="translate(117.81 15.68)"><tspan class="cls-3">4</tspan><tspan x="12.88" y="0">.</tspan><tspan class="cls-4" x="17.38" y="0">9</tspan><tspan x="28.56" y="0">/5</tspan></text></g></g></svg>