<svg xmlns="http://www.w3.org/2000/svg" viewBox="0 0 65.86 93.89"><defs><style>.cls-1{font-size:15px;font-family:Magistral-Book, Magistral;}.cls-1,.cls-4{fill:#fff;}.cls-2{fill:#bf2850;}.cls-3{fill:none;stroke:#fff;stroke-miterlimit:10;}</style></defs><g id="Слой_2" data-name="Слой 2"><g id="Онлайн_диагностика" data-name="Онлайн диагностика"><text class="cls-1" transform="translate(16.31 90.26)">SMS</text><circle class="cls-2" cx="32.93" cy="32.93" r="26.51"/><circle class="cls-3" cx="32.93" cy="32.93" r="32.43"/><path class="cls-4" d="M22.15,43.83a7.42,7.42,0,0,0,4-1.45l.06,0,.06,0A15.75,15.75,0,0,0,33,43.83c7.81,0,14.15-5.56,14.15-12.39S40.78,19,33,19s-14.14,5.57-14.14,12.4a11.49,11.49,0,0,0,3,7.68l0,0v.05a4.69,4.69,0,0,1-1.49,3.37l-.72.68.93.32A4.63,4.63,0,0,0,22.15,43.83ZM20,31.44C20,25.27,25.84,20.25,33,20.25s13,5,13,11.19S40.11,42.63,33,42.63a14.51,14.51,0,0,1-6.52-1.53l-.34-.17-.31.24a6.66,6.66,0,0,1-3.59,1.46H22l.14-.19a5.91,5.91,0,0,0,1-3.54v-.23l-.15-.16A10.31,10.31,0,0,1,20,31.44Z"/><circle class="cls-4" cx="27.8" cy="32.07" r="1.15"/><circle class="cls-4" cx="33.11" cy="32.07" r="1.15"/><circle class="cls-4" cx="38.42" cy="32.07" r="1.15"/></g></g></svg>