<svg xmlns="http://www.w3.org/2000/svg" viewBox="0 0 65.86 93.89"><defs><style>.cls-1{font-size:15px;font-family:Magistral-Book, Magistral;}.cls-1,.cls-5{fill:#fff;}.cls-2{letter-spacing:-0.02em;}.cls-3{fill:#2c5ab7;}.cls-4{fill:none;stroke:#fff;stroke-miterlimit:10;}</style></defs><g id="Слой_2" data-name="Слой 2"><g id="Онлайн_диагностика" data-name="Онлайн диагностика"><text class="cls-1" transform="translate(11.27 90.26)">Поч<tspan class="cls-2" x="27.97" y="0">т</tspan><tspan x="34.9" y="0">а</tspan></text><circle class="cls-3" cx="32.93" cy="32.93" r="26.51"/><circle class="cls-4" cx="32.93" cy="32.93" r="32.43"/><path class="cls-5" d="M20.23,40.88a2.67,2.67,0,0,0,2.34,1.83l.15,0H43.18l.19,0a3.73,3.73,0,0,0,.46-.09,2.65,2.65,0,0,0,1.92-2.23c0-.13,0-.25,0-.37V25.69a2.68,2.68,0,0,0-2.25-2.64A3.27,3.27,0,0,0,43,23H22.87a2.67,2.67,0,0,0-2.5,1.48,2.53,2.53,0,0,0-.26.87.53.53,0,0,1,0,.12V40.26l0,.18A3.54,3.54,0,0,0,20.23,40.88Zm23.06.38a.3.3,0,0,1-.25.2l-.17,0a3.42,3.42,0,0,1-.44,0H23.49l-.46,0-.18,0a.3.3,0,0,1-.25-.2.28.28,0,0,1,.08-.31l7.68-7.09a.25.25,0,0,1,.23-.08.26.26,0,0,1,.21.11,2.63,2.63,0,0,0,2.13,1h0a2.61,2.61,0,0,0,2.14-1.06.26.26,0,0,1,.21-.11.32.32,0,0,1,.23.07l7.69,7.1A.33.33,0,0,1,43.29,41.26ZM44,25.6a.33.33,0,0,1,.24-.08.34.34,0,0,1,.3.27l0,.15c0,.13,0,.26,0,.39V39.38a2.34,2.34,0,0,1,0,.38v.14a.29.29,0,0,1-.19.26l-.11,0a.3.3,0,0,1-.2-.08L39.61,36l-3.19-2.94a.31.31,0,0,1-.09-.22.28.28,0,0,1,.09-.22ZM22.89,24.24l.14,0a2.23,2.23,0,0,1,.36,0H42.5a1.72,1.72,0,0,1,.37,0l.17,0a.29.29,0,0,1,.24.2.32.32,0,0,1-.08.31l-.83.77-4.5,4.18-3.81,3.53a1.44,1.44,0,0,1-1.12.52h0a1.5,1.5,0,0,1-1.15-.59c-.07-.08-1.44-1.34-2.77-2.57l-3.43-3.17L22.8,24.87a.39.39,0,0,1-.16-.39A.34.34,0,0,1,22.89,24.24Zm-1.6,12.47V26.35c0-.14,0-.27,0-.4l0-.17a.29.29,0,0,1,.25-.26.39.39,0,0,1,.3.06l7.57,7.05a.29.29,0,0,1,.1.22.32.32,0,0,1-.1.22L24,38.1l-1.92,1.77A1.71,1.71,0,0,0,22,40l-.09.12a.3.3,0,0,1-.23.11h-.08a.32.32,0,0,1-.22-.24l0-.11c0-.1,0-.19,0-.29a2.09,2.09,0,0,1,0-.25Z"/></g></g></svg>