<svg xmlns="http://www.w3.org/2000/svg" viewBox="0 0 68.56 93.89"><defs><style>.cls-1{font-size:15px;font-family:Magistral-Book, Magistral;}.cls-1,.cls-5{fill:#fff;}.cls-2{letter-spacing:0.01em;}.cls-3{fill:#1eac0f;}.cls-4{fill:none;stroke:#fff;stroke-miterlimit:10;}</style></defs><g id="Слой_2" data-name="Слой 2"><g id="Онлайн_диагностика" data-name="Онлайн диагностика"><text class="cls-1" transform="translate(0 90.26)">Wha<tspan class="cls-2" x="31.35" y="0">t</tspan><tspan x="36.27" y="0">sapp</tspan></text><circle class="cls-3" cx="33.72" cy="32.93" r="26.51"/><circle class="cls-4" cx="33.72" cy="32.93" r="32.43"/><path class="cls-5" d="M26.48,44.72a3.24,3.24,0,0,1,2.6.14,13.5,13.5,0,0,0,12.85-1,13.31,13.31,0,0,0,6.27-11A13.55,13.55,0,0,0,34.66,19.08a13.8,13.8,0,0,0-10.13,4.43,13.27,13.27,0,0,0-2,15.13A2.73,2.73,0,0,1,22.61,41c-.51,1.4-1,2.82-1.48,4.33l-.41,1.24,1.3-.41C23.58,45.68,25,45.22,26.48,44.72ZM28.82,22A12.23,12.23,0,0,1,43.9,24.9,11.88,11.88,0,0,1,44.08,40a12.13,12.13,0,0,1-9.46,4.56,11.83,11.83,0,0,1-5.54-1.37,2.37,2.37,0,0,0-2.2-.17c-.64.25-1.31.45-2,.65l-.86.26L24,44l-1.14-.2.37-.49c1.72-2.28,1-4.32.11-6.67l-.19-.53A11.63,11.63,0,0,1,28.82,22Z"/></g></g></svg>