<svg xmlns="http://www.w3.org/2000/svg" viewBox="0 0 65.86 93.89"><defs><style>.cls-1{font-size:15px;font-family:Magistral-Book, Magistral;}.cls-1,.cls-6{fill:#fff;}.cls-2{letter-spacing:-0.09em;}.cls-3{letter-spacing:-0.02em;}.cls-4{fill:#2a85bc;}.cls-5{fill:none;stroke:#fff;stroke-miterlimit:10;}</style></defs><g id="Слой_2" data-name="Слой 2"><g id="Онлайн_диагностика" data-name="Онлайн диагностика"><text class="cls-1" transform="translate(2.42 90.26)"><tspan class="cls-2">T</tspan><tspan x="8.54" y="0">eleg</tspan><tspan class="cls-3" x="36.13" y="0">r</tspan><tspan x="40.38" y="0">am</tspan></text><circle class="cls-4" cx="32.93" cy="32.93" r="26.51"/><circle class="cls-5" cx="32.93" cy="32.93" r="32.43"/><path class="cls-6" d="M42.69,31.61l.75-3.93c.16-.82.32-1.63.49-2.43.2-1,.41-2.08.61-3.12a.89.89,0,0,0,0-.5c-.36-.56-.55-.65-1-.47q-1.5.57-3,1.17L24.65,28.66,17.78,31.4a2.3,2.3,0,0,0-.63.38.59.59,0,0,0,.05,1,3.64,3.64,0,0,0,.84.44c1.83.73,3.67,1.44,5.51,2.15l.13,0a1.37,1.37,0,0,1,.88,1c.26.93.5,1.86.75,2.79s.5,1.86.76,2.79l.05.19a8.29,8.29,0,0,0,.38,1.19.56.56,0,0,0,.83.31,2.69,2.69,0,0,0,.55-.31l2.42-1.73.68-.49c.53-.38.7-.38,1.25,0l4.52,3.05,1.4,1,.48.33H40l0,0a3,3,0,0,0,.18-.5c.28-1.42.55-2.86.82-4.28ZM26.46,37.48l-.26-.93c-.07-.22-.13-.42-.18-.63s-.12-.49-.17-.74a1.26,1.26,0,0,0-.89-.94l-3-1.12-1.07-.41a.88.88,0,0,1-.39-.26l-.38-.4L41.8,23.27Zm1.1,4.21-.79-2.94L27.86,38l2.39,1.73Zm11.3,2.05L29,37.09,42.84,23.8Z"/></g></g></svg>