<svg xmlns="http://www.w3.org/2000/svg" viewBox="0 0 64.53 64.53"><defs><style>.cls-1,.cls-3{fill:none;}.cls-1{stroke:#bf2850;stroke-miterlimit:10;stroke-width:1.2px;}.cls-2{fill:#bf2850;}</style></defs><g id="Слой_2" data-name="Слой 2"><g id="Преимущества"><circle class="cls-1" cx="32.27" cy="32.27" r="31.67"/><path class="cls-2" d="M15.53,28.1a7.43,7.43,0,0,1,.26-.71,2.52,2.52,0,0,1,2.38-1.46c.6,0,1.21,0,1.84,0,.08-.74.16-1.45.23-2.17s.17-1.67.28-2.5a2.54,2.54,0,0,1,2.77-2.16l11.47,1,10.74.89c.62,0,1.24.09,1.85.18a2.48,2.48,0,0,1,2.16,2.63c-.06,1.17-.18,2.34-.28,3.51q-.24,3-.5,5.95c-.16,1.88-.3,3.77-.48,5.65a2.51,2.51,0,0,1-2.53,2.25c-.34,0-.68,0-1.06-.06,0,.68,0,1.35,0,2a5.16,5.16,0,0,1-.11,1.11A2.52,2.52,0,0,1,42.21,46H18.35a2.55,2.55,0,0,1-2.77-2.1.41.41,0,0,0-.05-.09Zm27.81,7.19H16.86v7.94a1.27,1.27,0,0,0,1.46,1.46H41.88a1.28,1.28,0,0,0,1.46-1.46V35.29Zm-22-9.37H41.79a4.09,4.09,0,0,1,.92.08,2.55,2.55,0,0,1,1.95,2.62c0,3.55,0,7.1,0,10.66v.41c.37,0,.68.07,1,.08a1.21,1.21,0,0,0,1.29-1.14l.45-5.26c.26-3.15.53-6.3.79-9.45a1.28,1.28,0,0,0-1.31-1.54c-1.71-.13-3.42-.28-5.13-.42l-6.8-.57-6-.51-5.75-.48a1.2,1.2,0,0,0-1.34,1.09c-.1.69-.17,1.38-.24,2.08S21.43,25.11,21.35,25.92Zm-4.46,5.26v2.73H43.31V31.18Zm26.44-1.35c0-.5,0-1,0-1.43a1.2,1.2,0,0,0-1.13-1.14H18.29a2.09,2.09,0,0,0-.43,0,1.06,1.06,0,0,0-.94.9,12.8,12.8,0,0,0,0,1.64Zm-6,12.89h-3c-.58,0-.8-.22-.8-.8,0-1.3,0-2.61,0-3.91,0-.54.23-.77.76-.77,2.06,0,4.11,0,6.17,0,.54,0,.78.24.78.8v3.87c0,.57-.24.81-.81.81Zm-2.5-4.14v2.79h5V38.58Z"/><path class="cls-3" d="M34.31,42.72h6.1c.57,0,.81-.24.81-.81V38c0-.56-.24-.8-.78-.8-2.06,0-4.11,0-6.17,0-.53,0-.76.23-.76.77,0,1.3,0,2.61,0,3.91C33.51,42.5,33.73,42.72,34.31,42.72Z"/><path class="cls-3" d="M47.35,21.12c-.61-.09-1.23-.13-1.85-.18l-10.74-.89-11.47-1a2.54,2.54,0,0,0-2.77,2.16c-.11.83-.19,1.67-.28,2.5s-.15,1.43-.23,2.17c-.63,0-1.24,0-1.84,0a2.52,2.52,0,0,0-2.38,1.46,7.43,7.43,0,0,0-.26.71V43.84a.22.22,0,0,1,.05.08A2.55,2.55,0,0,0,18.35,46H42.21a2.52,2.52,0,0,0,2.34-1.85,5.16,5.16,0,0,0,.11-1.11c0-.66,0-1.33,0-2,.38,0,.72.06,1.06.06a2.51,2.51,0,0,0,2.53-2.25c.18-1.88.32-3.77.48-5.65s.34-4,.5-5.95c.1-1.17.22-2.34.28-3.51A2.48,2.48,0,0,0,47.35,21.12Zm-4,14.54v7.57a1.28,1.28,0,0,1-1.46,1.46H18.32a1.27,1.27,0,0,1-1.46-1.46V35.29H43.34ZM16.89,33.91V31.18H43.31v2.73Zm26.44-4.08H16.9a12.8,12.8,0,0,1,0-1.64,1.06,1.06,0,0,1,.94-.9,2.09,2.09,0,0,1,.43,0h23.9a1.2,1.2,0,0,1,1.13,1.14C43.36,28.86,43.33,29.33,43.33,29.83Zm4.06,3.55-.45,5.26a1.21,1.21,0,0,1-1.29,1.14c-.31,0-.62-.05-1-.08v-.41c0-3.56,0-7.11,0-10.66A2.55,2.55,0,0,0,42.71,26a4.09,4.09,0,0,0-.92-.08H21.35c.08-.81.16-1.58.24-2.34s.14-1.39.24-2.08a1.2,1.2,0,0,1,1.34-1.09l5.75.48,6,.51,6.8.57c1.71.14,3.42.29,5.13.42a1.28,1.28,0,0,1,1.31,1.54C47.92,27.08,47.65,30.23,47.39,33.38Z"/></g></g></svg>