<svg xmlns="http://www.w3.org/2000/svg" viewBox="0 0 64.53 64.53"><defs><style>.cls-1{fill:#bf2850;}.cls-2{fill:none;stroke:#bf2850;stroke-miterlimit:10;stroke-width:1.2px;}</style></defs><g id="Слой_2" data-name="Слой 2"><g id="Преимущества"><path class="cls-1" d="M25.5,52a3.43,3.43,0,0,1-.48-.53c-.51-.85-1-1.7-1.49-2.56a.38.38,0,0,0-.5-.24c-1,.2-2,.38-3.07.53a1,1,0,0,1-.68-.21c-.24-.18-.18-.47-.05-.74l3.3-7.1c.06-.13.12-.25.19-.43-.29-.16-.56-.33-.84-.46l-1.8-.78a4,4,0,0,1-2.72-4.78,15.4,15.4,0,0,0,.24-2.14,3.78,3.78,0,0,0-.29-1.44c-.31-.73-.71-1.42-1.06-2.13a3.92,3.92,0,0,1,.84-4.84l1.68-1.58a2.89,2.89,0,0,0,.9-1.53c.18-.84.38-1.67.6-2.5a3.9,3.9,0,0,1,3.62-2.93l2.58-.15a2.74,2.74,0,0,0,1.5-.61l1.82-1.36a3.93,3.93,0,0,1,4.94,0l1.88,1.41a2.77,2.77,0,0,0,1.64.58c.84,0,1.69.09,2.53.15a4,4,0,0,1,3.56,3.16c.18.76.36,1.52.53,2.28a2.71,2.71,0,0,0,.85,1.47c.59.54,1.17,1.09,1.74,1.64a3.94,3.94,0,0,1,.85,4.78c-.29.59-.57,1.2-.91,1.78A3.49,3.49,0,0,0,47,33.12c.11.67.16,1.35.25,2A3.91,3.91,0,0,1,45,39.22c-.79.37-1.6.69-2.4,1-.23.11-.44.24-.69.38l1.5,3.23c.66,1.43,1.32,2.85,2,4.28a.71.71,0,0,1,0,.79.72.72,0,0,1-.81.21c-1-.18-2-.34-3-.53a.35.35,0,0,0-.43.19c-.5.88-1,1.76-1.52,2.63a3,3,0,0,1-.49.52h-.38a3.9,3.9,0,0,1-.46-.63q-1.43-3-2.82-6a.66.66,0,0,0-.46-.4c-.63-.18-1.26-.37-1.88-.57a2.77,2.77,0,0,0-1.73,0c-.56.18-1.13.35-1.7.5a.72.72,0,0,0-.51.45c-.93,2-1.87,4-2.82,6a3.56,3.56,0,0,1-.47.63Zm10.87-8a2.83,2.83,0,0,0,2.53-1.24c.43-.65.86-1.3,1.28-2a4.21,4.21,0,0,1,2-1.72c.74-.3,1.47-.61,2.19-.94A2.67,2.67,0,0,0,46,35.23c-.09-.68-.15-1.37-.25-2a4.51,4.51,0,0,1,.52-3c.33-.59.62-1.21.93-1.81A2.69,2.69,0,0,0,46.6,25c-.61-.59-1.24-1.16-1.85-1.75a3.65,3.65,0,0,1-1-1.8c-.2-.85-.39-1.7-.6-2.54a2.65,2.65,0,0,0-2.39-2.11c-.83-.06-1.67-.12-2.5-.15a4,4,0,0,1-2.35-.83c-.63-.48-1.27-.95-1.91-1.42a2.67,2.67,0,0,0-3.41,0l-1.9,1.42a3.89,3.89,0,0,1-2.09.81L24,16.8A2.68,2.68,0,0,0,21.41,19c-.18.76-.36,1.52-.53,2.28a4.09,4.09,0,0,1-1.22,2.14c-.59.54-1.16,1.08-1.74,1.63a2.67,2.67,0,0,0-.58,3.36c.36.73.74,1.46,1.1,2.19a3.75,3.75,0,0,1,.41,2c-.09.85-.19,1.7-.3,2.56a2.69,2.69,0,0,0,1.72,3l2.15.92a4,4,0,0,1,1.86,1.55c.42.66.85,1.31,1.28,2a2.67,2.67,0,0,0,3.23,1.2L31,43.14a4,4,0,0,1,2.16-.08c.37.09.73.22,1.1.32ZM41,41.75c-.4.62-.76,1.16-1.12,1.7a3.88,3.88,0,0,1-2.31,1.63c-.25.06-.51.09-.81.15L39,50l.16-.25c.39-.67.79-1.34,1.17-2a.72.72,0,0,1,.89-.42c.31.08.63.12,1,.18l1.65.27Zm-20.23,6,1.93-.34c1.36-.22,1.18-.37,1.92.9l1,1.69,2.23-4.81a4.08,4.08,0,0,1-3.43-2.07c-.21-.34-.43-.67-.65-1-.06-.09-.13-.17-.22-.29ZM32.26,39.3A10.41,10.41,0,1,1,42.68,28.89,10.42,10.42,0,0,1,32.26,39.3Zm0-1.23a9.18,9.18,0,1,0-9.19-9.19A9.18,9.18,0,0,0,32.28,38.07ZM30.89,28.8c1.45-1.42,2.87-2.81,4.31-4.17A2.92,2.92,0,0,1,36.26,24a2,2,0,0,1,2.3.95,2.07,2.07,0,0,1-.34,2.51c-1.38,1.41-2.78,2.81-4.16,4.21l-1.55,1.56a2,2,0,0,1-3,0c-1-1-2.09-2.08-3.13-3.12a2.07,2.07,0,1,1,2.92-2.94C29.83,27.72,30.39,28.3,30.89,28.8Zm-4-.07a2.43,2.43,0,0,0,.37.57c1,1,1.93,1.95,2.9,2.92.59.58,1,.58,1.56,0l4.63-4.66c.33-.34.68-.67,1-1a.83.83,0,0,0-.48-1.39.91.91,0,0,0-.84.36L31.65,30c-.56.57-.78.57-1.34,0S29,28.67,28.38,28a.8.8,0,0,0-.94-.21A.87.87,0,0,0,26.93,28.73Z"/><circle class="cls-2" cx="32.27" cy="32.27" r="31.67"/></g></g></svg>