<svg xmlns="http://www.w3.org/2000/svg" viewBox="0 0 22.04 22.06"><defs><style>.cls-1{fill:#fff;}</style></defs><g id="Слой_2" data-name="Слой 2"><g id="Подвал"><path class="cls-1" d="M0,6.08c0-.26.05-.52.1-.77A3.13,3.13,0,0,1,1,3.67c.59-.6,1.17-1.23,1.8-1.79a2,2,0,0,1,3,0c1,.93,2,1.91,2.88,2.91a2,2,0,0,1,0,2.64C8.11,8,7.56,8.55,7,9.08c-.11.11-.13.17-.06.31a11.88,11.88,0,0,0,2.11,2.87,14,14,0,0,0,2.79,2.36c.29.19.61.34.94.52.4-.4.78-.81,1.19-1.2a5.37,5.37,0,0,1,.95-.76,1.88,1.88,0,0,1,2.24.28c1,1,2,2,3,3a2,2,0,0,1,0,2.71c-.61.7-1.26,1.36-1.93,2a3.16,3.16,0,0,1-1.85.84l-.14,0h-.82a.7.7,0,0,0-.14,0c-.47-.09-.94-.14-1.39-.26a16.14,16.14,0,0,1-4.5-2.07,22.32,22.32,0,0,1-8.11-8.91A12.67,12.67,0,0,1,.15,7.5C.08,7.13.05,6.75,0,6.38Zm1.27.18c0,.25,0,.5.07.75a2.29,2.29,0,0,0,.07.34A13.68,13.68,0,0,0,3.2,11.59,21.11,21.11,0,0,0,12,19.67a10.26,10.26,0,0,0,3.62,1.13,2.38,2.38,0,0,0,2.05-.71c.47-.49.95-1,1.42-1.45a2.2,2.2,0,0,0,.2-.23.84.84,0,0,0,0-1.17c-.34-.37-.7-.72-1.06-1.08-.55-.55-1.1-1.11-1.66-1.66a.84.84,0,0,0-1.26,0l-.19.18-1.48,1.48a.93.93,0,0,1-1.14.21,11.09,11.09,0,0,1-1.22-.67,16,16,0,0,1-3.55-3.12A11.61,11.61,0,0,1,5.82,9.89c-.39-.84-.34-1.07.33-1.72.49-.46,1-.93,1.42-1.41a.81.81,0,0,0,0-1.21L7.45,5.4,4.94,2.89a1.46,1.46,0,0,0-.32-.25.91.91,0,0,0-1.13.26c-.48.47-.94,1-1.42,1.41A2.46,2.46,0,0,0,1.27,6.26Z"/><path class="cls-1" d="M12.26,0c.27.05.59.11.9.19a11.79,11.79,0,0,1,5.08,2.69,11.66,11.66,0,0,1,3.3,5c.21.61.34,1.24.49,1.87a.59.59,0,0,1-.47.73.62.62,0,0,1-.74-.44c-.09-.35-.15-.72-.25-1.07a10.65,10.65,0,0,0-8.23-7.64A1.58,1.58,0,0,1,12,1.2.6.6,0,0,1,11.6.51.64.64,0,0,1,12.26,0Z"/><path class="cls-1" d="M12.1,4a6.15,6.15,0,0,1,1.72.51A7.19,7.19,0,0,1,18,9.85a.63.63,0,1,1-1.23.3,10,10,0,0,0-.44-1.41A5.85,5.85,0,0,0,12,5.26.63.63,0,1,1,12.1,4Z"/></g></g></svg>