<svg xmlns="http://www.w3.org/2000/svg" viewBox="0 0 64.53 64.53"><defs><style>.cls-1{fill:#bf2850;}.cls-2{fill:none;stroke:#bf2850;stroke-miterlimit:10;stroke-width:1.2px;}</style></defs><g id="Слой_2" data-name="Слой 2"><g id="Преимущества"><path class="cls-1" d="M49.49,49c-.18-.6-.33-1.21-.47-1.81a12.63,12.63,0,0,0-1.56-4.24l0-.06,0-.11.06-.08.27-.19A4.77,4.77,0,0,0,49.87,38a1,1,0,0,0-.7-.92,1,1,0,0,0-1.15.22l-.27.26-.89.79a1.27,1.27,0,0,1-1.92-1.65c.26-.39.53-.8.82-1.21a1.09,1.09,0,0,0,.12-1.28,1.14,1.14,0,0,0-1.2-.55,4.84,4.84,0,0,0-4.39,3.85,7.71,7.71,0,0,0-.12,1.1c0,.19,0,.37,0,.56l0,.14H40l-.5-.06-1.1-.11a1.75,1.75,0,0,1-1.74-1.81V36.5c0-.3,0-.61,0-.92a.83.83,0,0,1,.29-.66l.51-.53c.59-.62,1.21-1.26,1.74-1.93a5.72,5.72,0,0,0,1.3-3.93c0-.79,0-1.59,0-2.36v-1c0-.09,0-.18,0-.28v-.27h1c.16,0,.31,0,.46,0a.61.61,0,0,0,0-1.22l-.37,0h-.22l-.09-.19,0-.29a9.13,9.13,0,0,0-5.15-7.53.64.64,0,0,1-.28-.44,2.18,2.18,0,0,0-2.19-2.07H30.67a2.14,2.14,0,0,0-2.22,2,.71.71,0,0,1-.44.61,9,9,0,0,0-5,7.51.51.51,0,0,1-.15.37.49.49,0,0,1-.35.08.78.78,0,0,0-.26,0,.59.59,0,0,0-.55.59.6.6,0,0,0,.56.61h1.48v.14c0,.42,0,.83,0,1.23,0,.94,0,1.82,0,2.71a5.78,5.78,0,0,0,1,3.36A15.89,15.89,0,0,0,27.3,35a.83.83,0,0,1,.28.51c0,.58,0,1.19,0,1.87A1.79,1.79,0,0,1,26,39.1l-1.54.16-1.86.19a7.94,7.94,0,0,0-6.89,5.78c-.25.89-.49,1.79-.72,2.69l-.27,1c-.14.54-.07.71.39,1h.36a1.28,1.28,0,0,0,.5-.8L16.23,48a29.34,29.34,0,0,1,.91-3.13,6.36,6.36,0,0,1,4.66-4l.23-.05.12,0,.14,0v.66q0,1,0,2a.5.5,0,0,1-.28.35,3.71,3.71,0,0,0-2.36,2.52c-.19.58-.4,1.16-.6,1.72l-.25.69c-.21.59-.17.76.31,1.1h.36a1.19,1.19,0,0,0,.51-.72c.3-.89.62-1.78.94-2.64a2.29,2.29,0,0,1,2.22-1.62h12.3l.32,0-.21.29a1.4,1.4,0,0,1-.13.18A2.69,2.69,0,0,0,37,49.84a.59.59,0,0,1,.14.06h.72A3.78,3.78,0,0,0,40,48.42c.54-.66,1.1-1.3,1.69-2l.79-.9.13-.15.09.18.2.33a4.13,4.13,0,0,1,.36.69c.29.75.58,1.57.94,2.64a1.12,1.12,0,0,0,.5.68h.36c.48-.35.52-.51.31-1.1l-.22-.62c-.19-.5-.37-1-.53-1.51a4.65,4.65,0,0,0-1.18-2l-.1-.09.32-.37c.2-.24.4-.46.61-.68a.6.6,0,0,1,.41-.14H45a2,2,0,0,0,.56,0,.65.65,0,0,1,.85.41c.08.19.17.38.26.57a11,11,0,0,1,.63,1.5c.3,1,.54,1.92.78,2.87l.11.47a1.24,1.24,0,0,0,.49.77h.36C49.54,49.63,49.62,49.44,49.49,49ZM24.31,23.38l0-.11c-.4-2.11,1.87-5.67,4.25-6.68l.16-.07.68,3c.07.35.15.71.24,1.06a.63.63,0,0,0,.73.55.56.56,0,0,0,.39-.25.68.68,0,0,0,.08-.55c-.21-1-.43-2-.65-3l-.45-2a1,1,0,0,1,.14-.91,1.08,1.08,0,0,1,.86-.35H33.5a.94.94,0,0,1,1,1.23L34.11,17c-.24,1.1-.48,2.19-.71,3.29a1,1,0,0,0,0,.54.55.55,0,0,0,.6.38.6.6,0,0,0,.57-.52c.14-.55.26-1.11.38-1.66l.54-2.44.16.06A7.69,7.69,0,0,1,40,23.24v.14ZM26,31.67a4.93,4.93,0,0,1-1-3.11c0-.86,0-1.75,0-2.6,0-.39,0-.78,0-1.17v-.14H39.19v.14c0,.47,0,.93,0,1.4,0,1.07,0,2.17,0,3.26a4.7,4.7,0,0,1-1.26,2.63,21.93,21.93,0,0,1-3,3l-.57.5a2.28,2.28,0,0,1-1.53.66l-.29,0h-.9a1.72,1.72,0,0,1-1.66-.63l-.55-.47A18.73,18.73,0,0,1,26,31.67Zm1.53,8.17a3.32,3.32,0,0,0,1.32-3.26l0-.32.44.35.26.22a2.47,2.47,0,0,0,1.64.61h.16c.52,0,1.07,0,1.6,0H33a2.61,2.61,0,0,0,1.79-.69,2.18,2.18,0,0,1,.21-.17l.44-.34,0,.33a3.28,3.28,0,0,0,1.3,3.25l.14.1-.12.12a6.79,6.79,0,0,1-4.5,1.4,8,8,0,0,1-4.73-1.38L27.35,40Zm1.17,3.85H23.88l-.12,0-.2,0v-3l.61-.06c.43,0,.89-.1,1.33-.13h0a.71.71,0,0,1,.41.19l0,0a11.45,11.45,0,0,0,4.55,2A9.42,9.42,0,0,0,37,41.41l0,0a7.94,7.94,0,0,0,1.15-.72,1.4,1.4,0,0,1,1.23-.19l.32.05-.27.31c-.07.1-.14.17-.2.25l-.48.55c-.52.6-1,1.2-1.56,1.79a.73.73,0,0,1-.49.25Zm17.74-1.83a3.48,3.48,0,0,1-2,.21.8.8,0,0,0-.85.32l-3.36,3.88-1.61,1.86a1.42,1.42,0,0,1-1.07.55,1.18,1.18,0,0,1-.41-.07A1.48,1.48,0,0,1,36,47.41a1.42,1.42,0,0,1,.4-1.22l1.38-1.6,3.47-4a1,1,0,0,0,.26-1.12,3.58,3.58,0,0,1,.4-2.9A3.48,3.48,0,0,1,44.29,35l.32-.06-.7,1a2.52,2.52,0,0,0,3.78,3.29l.89-.79v.3A3.49,3.49,0,0,1,46.41,41.86Z"/><circle class="cls-2" cx="32.27" cy="32.27" r="31.67"/></g></g></svg>