<svg xmlns="http://www.w3.org/2000/svg" viewBox="0 0 24.92 24.93"><defs><style>.cls-1{fill:#fff;}</style></defs><g id="Слой_2" data-name="Слой 2"><g id="Подвал"><path class="cls-1" d="M24.91,4.8A5.61,5.61,0,0,0,22,.16.79.79,0,0,0,21.2.09a.79.79,0,0,0-.32.72v.67c0,1,0,1.89,0,2.84a.61.61,0,0,1-.38.59A2.24,2.24,0,0,1,18,4.9c-.24,0-.39-.24-.38-.57,0-1.2,0-2.4,0-3.6a.73.73,0,0,0-.32-.64A.65.65,0,0,0,17,0a.76.76,0,0,0-.4.11,5.59,5.59,0,0,0-3,4.64,5.58,5.58,0,0,0,2.39,5,.68.68,0,0,1,.32.62q0,2.27,0,4.53V22a2.93,2.93,0,1,0,5.85-.12V10.37a.73.73,0,0,1,.33-.66A5.59,5.59,0,0,0,24.91,4.8ZM21.32,8.92a.76.76,0,0,0-.44.75q0,6.12,0,12.25a1.62,1.62,0,0,1-1.6,1.69h0a1.62,1.62,0,0,1-1.61-1.53V18.74q0-4.45,0-8.93a1,1,0,0,0-.56-1,4.26,4.26,0,0,1-2-2.74,4.34,4.34,0,0,1,.61-3.42l.13-.17.55-.68V3.73q0,.72,0,1.44a.63.63,0,0,0,.41.64l.11,0c.7.29,1.42.59,2.14.85a.91.91,0,0,0,.54,0c.6-.21,1.19-.45,1.77-.69l.44-.18a.65.65,0,0,0,.44-.67V1.84l.45.56a4.11,4.11,0,0,1,.9,2A4.27,4.27,0,0,1,21.32,8.92Z"/><path class="cls-1" d="M7.79,21.06a.65.65,0,0,1,.26.06c.47.21.95.41,1.43.59a.52.52,0,0,1,.35.48c0,.29,0,.58.07.87l0,.43a1.55,1.55,0,0,0,1.48,1.42c.69,0,1.4,0,2.11,0a1.63,1.63,0,0,0,1.07-.5,1.46,1.46,0,0,0,.41-1,.64.64,0,0,0-.36-.56.54.54,0,0,0-.61,0,2.78,2.78,0,0,0-.33.39c0,.08-.12.16-.18.25l-.08.09H11.26l-.18-2.27a.64.64,0,0,0-.49-.65A9.53,9.53,0,0,1,8,19.6a.62.62,0,0,0-.77.07l-.23.2-1.5,1.28L3.78,19.44l.55-.65c.29-.34.59-.68.88-1a.67.67,0,0,0,.08-.91,8.8,8.8,0,0,1-1-2.41.68.68,0,0,0-.71-.6l-2.24-.18v-2.4l2.21-.18c.47,0,.63-.17.75-.63a8.93,8.93,0,0,1,1-2.31.73.73,0,0,0-.09-1L3.77,5.48,5.48,3.77l.65.56,1,.88a.67.67,0,0,0,.91.08,8.85,8.85,0,0,1,2.41-1,.69.69,0,0,0,.61-.73c0-.48.07-.95.11-1.43l.06-.8h1.21a.66.66,0,0,0,.65-.66A.64.64,0,0,0,12.46,0h-1A1.56,1.56,0,0,0,9.93,1.48v.13c0,.39-.06.77-.1,1.15a.63.63,0,0,1-.35.44c-.48.22-1,.42-1.45.6a.58.58,0,0,1-.55-.08c-.22-.17-.43-.35-.64-.53l-.32-.28A1.55,1.55,0,0,0,4.31,3L3,4.3a1.57,1.57,0,0,0-.08,2.22l.27.32c.18.2.36.41.52.62A.63.63,0,0,1,3.81,8c-.11.27-.21.53-.32.79s-.19.45-.28.68a.5.5,0,0,1-.48.35c-.26,0-.51,0-.77.06l-.5,0A1.56,1.56,0,0,0,0,11.46q0,1,0,2A1.56,1.56,0,0,0,1.47,15l.44,0c.28,0,.55.05.83.06a.5.5,0,0,1,.47.36c.19.48.38,1,.59,1.43a.5.5,0,0,1-.09.61l-.8.94A1.55,1.55,0,0,0,3,20.59c.44.46.9.91,1.36,1.36A1.55,1.55,0,0,0,6.49,22c.32-.26.64-.53.94-.81A.56.56,0,0,1,7.79,21.06Z"/><polygon class="cls-1" points="7.6 21.4 7.6 21.4 7.6 21.4 7.6 21.4"/><polygon class="cls-1" points="3.58 16.98 3.58 16.98 3.58 16.98 3.58 16.98"/><path class="cls-1" d="M6.4,13.23a6.15,6.15,0,0,0,5.94,5.34h0a6.32,6.32,0,0,0,2.12-.34.66.66,0,0,0,.47-.64.6.6,0,0,0-.42-.59A1.18,1.18,0,0,0,14,17a5.12,5.12,0,0,1-2.18.18A4.79,4.79,0,0,1,8.64,9.58a4.81,4.81,0,0,1,3-1.85.65.65,0,0,0,.54-.57.61.61,0,0,0-.38-.66,1.12,1.12,0,0,0-.32,0,1.33,1.33,0,0,0-.28,0A6.11,6.11,0,0,0,6.4,13.23Z"/></g></g></svg>