<svg xmlns="http://www.w3.org/2000/svg" viewBox="0 0 69.19 69.19"><defs><style>.cls-1{isolation:isolate;}.cls-2{mix-blend-mode:screen;}.cls-3{fill:#fff;}</style></defs><g class="cls-1"><g id="Слой_2" data-name="Слой 2"><g id="Титул"><g class="cls-2"><path class="cls-3" d="M34.59,69.19a34.6,34.6,0,1,1,34.6-34.6A34.64,34.64,0,0,1,34.59,69.19Zm0-68A33.4,33.4,0,1,0,68,34.59,33.43,33.43,0,0,0,34.59,1.2Z"/></g><g class="cls-2"><path class="cls-3" d="M51.57,17.83c0-2.14,0-4.27,0-6.35,0-.79-.42-1.29-1.07-1.29h0c-.65,0-1,.49-1.06,1.31s0,1.42,0,2.16V15.1l-.41,0-.19,0A.62.62,0,0,1,48.5,15L48,14.61l-.13-.08A24.2,24.2,0,0,0,34,10.22a26.33,26.33,0,0,0-2.79.14A24.36,24.36,0,0,0,18.7,53.76a1.35,1.35,0,0,0,1,.34.91.91,0,0,0,.62-.39,1.07,1.07,0,0,0-.25-1.6l-.51-.43-.47-.41A22.07,22.07,0,0,1,16,21.34,22.58,22.58,0,0,1,45.4,15.52l.58.4.89.61-.72.24a6.75,6.75,0,0,1-2,.26h-.26c-.59,0-1.3.21-1.32,1a1,1,0,0,0,.25.73,1.52,1.52,0,0,0,1.09.38c2.12,0,4.23,0,6.35,0C51.21,19.17,51.56,18.82,51.57,17.83Z"/><path class="cls-3" d="M37.5,33.88c.35-.61,1.13-1.27,2.81-.92a2.16,2.16,0,0,1,1.57,2,16.69,16.69,0,0,1,.18,2.31c0,.91,0,1.83,0,2.75s0,1.61,0,2.42a1.54,1.54,0,0,0,.38,1.11.93.93,0,0,0,.72.24c.89,0,1-.84,1-1.32V41.7c0-1.79,0-3.65,0-5.47a11,11,0,0,0-.42-2.55,3.9,3.9,0,0,0-3.86-3,9.63,9.63,0,0,0-2,.25l-1,.17-.43.07V29.6c0-1,0-1.94,0-2.93a1.65,1.65,0,0,0-.39-1.2.92.92,0,0,0-.73-.25c-.87,0-1.05.78-1.05,1.42q0,7.86,0,15.73c0,.64.18,1.4,1.05,1.42a1,1,0,0,0,.73-.25,1.66,1.66,0,0,0,.39-1.2c0-.6,0-1.2,0-1.8,0-1.22,0-2.48.07-3.72A7.07,7.07,0,0,1,37.5,33.88Z"/><path class="cls-3" d="M27.32,42.36c0,.52.14,1.4,1.07,1.43a1,1,0,0,0,.77-.27,1.28,1.28,0,0,0,.35-1q0-8.57,0-17.13a1.07,1.07,0,0,0-1.18-1.2c-1.2,0-2.39,0-3.53,0a1.34,1.34,0,0,0-.94.36,1,1,0,0,0-.23.69c0,.44.16,1,1.19,1.09.45,0,.9,0,1.39,0h1.11v16Z"/><path class="cls-3" d="M35.89,56.79c-.31,0-.61,0-.92,0l-.46,0h-1a5.52,5.52,0,0,0-.58,0,.94.94,0,0,0-1,1A.92.92,0,0,0,32.82,59a18.27,18.27,0,0,0,3.34-.1A.91.91,0,0,0,37,57.74,1,1,0,0,0,35.89,56.79Z"/><path class="cls-3" d="M56.14,36.21v.14a7.31,7.31,0,0,0,0,1,1,1,0,0,0,1.07,1,.87.87,0,0,0,1-.85c.12-1.15.18-2.15.19-3.07a1,1,0,0,0-1-1.1.9.9,0,0,0-.68.21,1.31,1.31,0,0,0-.43.91c0,.31,0,.61,0,.92,0,.15,0,.3,0,.45v.37Z"/><path class="cls-3" d="M55.54,28.89a1,1,0,0,0,1.3.79,1.09,1.09,0,0,0,.69-.44,1.07,1.07,0,0,0,.08-.82,17.19,17.19,0,0,0-1-3,1.61,1.61,0,0,0-.58-.51c-.06,0-.1-.07-.15-.1a1.36,1.36,0,0,0-1.07.45,1.21,1.21,0,0,0-.13,1.08C55,27.24,55.26,28.12,55.54,28.89Z"/><path class="cls-3" d="M55.66,41.87l-.13.06c-.18.09-.45.21-.53.36a19.7,19.7,0,0,0-1.4,3.05.91.91,0,0,0,.59,1.2.93.93,0,0,0,1.3-.37,19.59,19.59,0,0,0,1.36-3,.84.84,0,0,0-.1-.81A1.39,1.39,0,0,0,55.66,41.87Z"/><path class="cls-3" d="M48.72,51.24l-.26.28A1,1,0,0,0,48.39,53a.94.94,0,0,0,1.47.1A28.66,28.66,0,0,0,52,51.08a2,2,0,0,0,.32-.59l.13-.28a2,2,0,0,1-.17-.23c-.17-.24-.36-.51-.53-.57a1.44,1.44,0,0,0-.37,0,1.67,1.67,0,0,0-.86.23A13.82,13.82,0,0,0,48.72,51.24Z"/><path class="cls-3" d="M45.3,55.84l.08-.14a1.3,1.3,0,0,0-.5-1,.91.91,0,0,0-.56-.18,1.31,1.31,0,0,0-.43.08h0c-.84.29-1.62.63-2.56,1-.67.3-.95.85-.71,1.4a1,1,0,0,0,1.47.62,17.18,17.18,0,0,0,2.69-1.18A1.82,1.82,0,0,0,45.3,55.84Z"/><path class="cls-3" d="M27.2,58a1.36,1.36,0,0,0,1-.6,1.46,1.46,0,0,0-.19-1.1,19.09,19.09,0,0,0-2.58-1.13l-1-.37-.27.23c-.27.23-.55.46-.59.65a1.46,1.46,0,0,0,.33,1.12A12.2,12.2,0,0,0,27.2,58Z"/></g></g></g></g></svg>