<svg xmlns="http://www.w3.org/2000/svg" viewBox="0 0 68.82 68.82"><defs><style>.cls-1{fill:#fff;}</style></defs><g id="Слой_2" data-name="Слой 2"><g id="Титул"><path class="cls-1" d="M34.44,10.39h0A24.36,24.36,0,0,0,17.2,52a24.07,24.07,0,0,0,17.17,7.11h.05a24.34,24.34,0,0,0,0-48.68ZM39,46.85c.08,2.22.06,4.42,0,6.75,0,1,0,2,0,3.06v.89H29.77v-.89c0-1.14,0-2.25,0-3.35,0-2.68,0-5.22,0-7.78a2.58,2.58,0,0,0-1.4-2.6,10.51,10.51,0,0,1-4.78-7.16,11.48,11.48,0,0,1,2.5-9.05l1.57-2v2.55c0,.63,0,1.22,0,1.76A13.78,13.78,0,0,0,27.74,32a4.06,4.06,0,0,0,.93,1.53c.12.17.25.33.38.5h0a1.8,1.8,0,0,1,.65.31c3,2.34,6,2.18,10.32-.56A2.56,2.56,0,0,0,41,32.18a17.65,17.65,0,0,0,.08-3c0-.5,0-1,0-1.54V25.52L42.54,27a9.49,9.49,0,0,1,2.79,8A10.22,10.22,0,0,1,41,42.43C39.17,43.56,38.87,44.81,39,46.85Zm2.38,9.55-1,.2V55.53c0-.85,0-1.7,0-2.55,0-2.36,0-4.81.09-7.21,0-1,1-1.8,1.74-2.43l.12-.1a12.43,12.43,0,0,0,4.44-9.82A12,12,0,0,0,42,24.14a3.41,3.41,0,0,0-1.72-.73,5.18,5.18,0,0,0-.47,1.85,14.13,14.13,0,0,0,0,3.26c.29,2.85-.61,4.47-3.14,5.58s-4.1.13-5.59-.7l-1-.5c-.8-.38-1-1.56-1-2.47s0-1.73,0-2.6c0-1.07,0-2.18-.05-3.25a2.3,2.3,0,0,0-.44-1.23,2.56,2.56,0,0,0-1.25.42A11.55,11.55,0,0,0,22.14,33a12.35,12.35,0,0,0,4.4,10.2,4.61,4.61,0,0,1,2,4.17c-.09,1.89-.07,3.85-.05,5.73,0,.82,0,1.64,0,2.46v1l-1-.18c-9.4-1.64-16.87-12.88-16-24S22.47,11.79,34,11.68h.24c12.2,0,21.9,9,23.12,21.46C58.38,43.32,50.57,54.62,41.33,56.4Z"/><path class="cls-1" d="M34.41,68.82A34.41,34.41,0,1,1,68.82,34.41,34.45,34.45,0,0,1,34.41,68.82Zm0-67.76A33.35,33.35,0,1,0,67.76,34.41,33.39,33.39,0,0,0,34.41,1.06Z"/></g></g></svg>