<svg xmlns="http://www.w3.org/2000/svg" viewBox="0 0 70.75 75.11"><defs><style>.cls-1{fill:#bf2850;}.cls-2{font-size:33.28px;font-family:Magistral-Book, Magistral;}.cls-2,.cls-3,.cls-4{fill:#fff;}.cls-3{font-size:14.65px;font-family:Magistral-Bold, Magistral;font-weight:700;}</style></defs><g id="Слой_2" data-name="Слой 2"><g id="Онлайн_диагностика" data-name="Онлайн диагностика"><circle class="cls-1" cx="35.67" cy="39.97" r="28.18"/><text class="cls-2" transform="translate(32.04 44.38)">1</text><text class="cls-3" transform="translate(21.47 57.7)">мин</text><path class="cls-4" d="M35.3,75.11A35.38,35.38,0,0,1,5.19,21.3a.8.8,0,1,1,1.37.83A33.77,33.77,0,1,0,28.36,6.7.8.8,0,1,1,28,5.14a35.37,35.37,0,1,1,7.27,70Z"/><path class="cls-4" d="M28,6.75a.77.77,0,0,1-.55-.22.79.79,0,0,1,0-1.13L32.41.25a.8.8,0,0,1,1.13,0,.79.79,0,0,1,0,1.13l-5,5.16A.82.82,0,0,1,28,6.75Z"/><path class="cls-4" d="M34.65,9.45a.8.8,0,0,1-.3-.06l-6.62-2.7a.8.8,0,0,1,.6-1.48L35,7.91a.79.79,0,0,1,.44,1A.8.8,0,0,1,34.65,9.45Z"/></g></g></svg>