<svg xmlns="http://www.w3.org/2000/svg" viewBox="0 0 17.7 27.4"><defs><style>.cls-1{fill:#bf2850;stroke:#bf2850;stroke-miterlimit:10;stroke-width:0.5px;}</style></defs><g id="Слой_2" data-name="Слой 2"><g id="Подвал"><path class="cls-1" d="M10.13,4.9H2.61A2.36,2.36,0,0,0,.25,7.22V24.83a2.34,2.34,0,0,0,2.34,2.32h7.53a2.33,2.33,0,0,0,2.33-2.31V7.21A2.32,2.32,0,0,0,10.13,4.9ZM5.29,6.29H7.47a.35.35,0,1,1,0,.69H5.29a.35.35,0,1,1,0-.69ZM4,6.4a.36.36,0,0,1,.49,0,.35.35,0,0,1,.1.24A.34.34,0,0,1,4.22,7,.35.35,0,0,1,4,6.89a.33.33,0,0,1-.1-.25A.31.31,0,0,1,4,6.4ZM6.31,26.46a1,1,0,0,1,0-2.08,1,1,0,1,1,0,2.08Zm5.07-2.79H1.47V8.2h9.91V23.67Z"/><path class="cls-1" d="M13.28,1.15a3.28,3.28,0,0,1,3.27,3.28.45.45,0,0,0,.45.45.45.45,0,0,0,.45-.45,4.11,4.11,0,0,0-1.22-2.95,4.15,4.15,0,0,0-3-1.23.45.45,0,0,0,0,.9Z"/><text/></g></g></svg>