<svg xmlns="http://www.w3.org/2000/svg" viewBox="0 0 105.26 70.13"><defs><style>.cls-1{fill:#fff;}</style></defs><g id="Слой_2" data-name="Слой 2"><g id="Отзывы"><path class="cls-1" d="M17.76,60.23c-2.41,0-4.86,0-7.31,0a11.69,11.69,0,0,1-2.65-.28A10.05,10.05,0,0,1,0,50c0-3.8,0-7.6,0-11.39C0,33.1,0,27.57,0,22A10.17,10.17,0,0,1,10.53,11.51h60c1.8,0,2.89,1.29,2.41,2.8a2.13,2.13,0,0,1-2.08,1.5H10.64c-3.9,0-6.36,2.47-6.36,6.38q0,13.69,0,27.4C4.28,53.5,6.74,56,10.65,56h9c1.86,0,2.64.79,2.59,2.63-.05,2-.14,4-.16,6,0,.37.12.93.37,1.07s.79-.07,1.08-.28q5.84-4.33,11.61-8.72A3.52,3.52,0,0,1,37.42,56c4.46,0,43.19,0,47.66,0a5.88,5.88,0,0,0,6-4.33,7.79,7.79,0,0,0,.22-2c0-5.58,0-11.16,0-16.75a2.16,2.16,0,0,1,2.11-2.31,2.18,2.18,0,0,1,2.18,2.26c0,.22,0,.45,0,.67V49.3c0,.69,0,1.39-.11,2.08a10,10,0,0,1-9.4,8.81c-4.49.11-43.24,0-47.73.06a2.64,2.64,0,0,0-1.42.46c-3.73,2.76-7.41,5.58-11.14,8.35A5,5,0,0,1,18.63,68a5.06,5.06,0,0,1-.87-3C17.78,63.41,17.76,61.88,17.76,60.23Z"/><path class="cls-1" d="M80.8,23.67c.13-1.73.27-3.41.35-5.09a1.87,1.87,0,0,0-.35-1.13c-1-1.26-2.07-2.47-3.09-3.72a3.59,3.59,0,0,1,1.93-6c1.56-.4,3.14-.75,4.68-1.19a1.81,1.81,0,0,0,1-.7c.88-1.32,1.69-2.69,2.54-4a3.7,3.7,0,0,1,6.37,0c.84,1.31,1.68,2.63,2.47,4a1.63,1.63,0,0,0,1.15.81c1.49.34,3,.72,4.47,1.11a3.61,3.61,0,0,1,2,6.07c-1,1.21-2,2.38-3,3.6a2,2,0,0,0-.39,1.19c.06,1.68.25,3.36.31,5.05a3.48,3.48,0,0,1-3.11,3.72,4.53,4.53,0,0,1-2-.3c-1.52-.54-3-1.21-4.49-1.77a1.69,1.69,0,0,0-1.11,0c-1.6.6-3.16,1.3-4.77,1.89A3.58,3.58,0,0,1,80.8,23.67Zm.78-12c1,1.22,1.9,2.37,2.88,3.4a3.78,3.78,0,0,1,1,3.33c-.18,1.39-.21,2.81-.31,4.34l.78-.3c1.28-.52,2.58-1,3.85-1.57a2.78,2.78,0,0,1,2.36,0c1.3.56,2.62,1.07,3.92,1.6l.73.25c-.08-1-.16-1.91-.2-2.8-.18-3.89-.74-2.83,1.81-5.88l.82-1,1.18-1.4c-1.62-.41-3.1-.83-4.6-1.14A3.33,3.33,0,0,1,93.48,8.8c-.76-1.32-1.61-2.6-2.47-4C90.1,6.28,89.22,7.62,88.4,9a3,3,0,0,1-2,1.48C84.81,10.83,83.25,11.25,81.58,11.67Z"/><path class="cls-1" d="M65.44,28.32H77.06a2.15,2.15,0,1,1,.19,4.29c-.62,0-1.25,0-1.87,0H19.8a2.27,2.27,0,0,1-2.38-1.41,2.13,2.13,0,0,1,2-2.88c2.41,0,4.81,0,7.22,0Z"/><path class="cls-1" d="M25.64,39.17c2.13,0,38.47,0,40.61,0a2.1,2.1,0,0,1,1,3.91,2.79,2.79,0,0,1-1.27.33c-4.06,0-42.34,0-46.4,0a2.14,2.14,0,1,1,.05-4.27h6Z"/></g></g></svg>