<svg xmlns="http://www.w3.org/2000/svg" viewBox="0 0 64.53 64.53"><defs><style>.cls-1,.cls-3{fill:none;}.cls-1{stroke:#bf2850;stroke-miterlimit:10;stroke-width:1.2px;}.cls-2{fill:#bf2850;}</style></defs><g id="Слой_2" data-name="Слой 2"><g id="Преимущества"><circle class="cls-1" cx="32.27" cy="32.27" r="31.67"/><path class="cls-2" d="M50.39,31a2.07,2.07,0,0,1-.38.4c-.31.22-.69.13-1.09-.22l-4.4-3.74L32.36,17.05l-.22-.17-.27.21-16.48,14a1.69,1.69,0,0,1-.74.35A.66.66,0,0,1,14,31a.73.73,0,0,1,.06-.78,2.13,2.13,0,0,1,.3-.3L31.45,15.37c.54-.46.85-.45,1.41,0l4.9,4.19.26.2c0-.14,0-.24,0-.34,0-.87,0-1.74,0-2.6a.86.86,0,0,1,1-1H42.4a.89.89,0,0,1,1,1c0,2.39,0,4.77,0,7.16a.6.6,0,0,0,.25.54q3.12,2.65,6.23,5.32a5.2,5.2,0,0,1,.51.63ZM39.62,17.48a23.13,23.13,0,0,1,0,2.5,1.87,1.87,0,0,0,.91,2A11.06,11.06,0,0,1,41.8,23V17.48ZM19.63,32l-.82.7c-.48.42-.93.44-1.25.06s-.24-.84.23-1.24L27,23.69l4.42-3.77c.57-.49.87-.49,1.43,0q6.82,5.84,13.66,11.66a.87.87,0,0,1,.36,1,.77.77,0,0,1-1.25.33c-.31-.24-.61-.51-1-.82V46.41a4.1,4.1,0,0,1,0,.5.75.75,0,0,1-.65.66,2.37,2.37,0,0,1-.46,0H20.77a3,3,0,0,1-.43,0,.78.78,0,0,1-.68-.67,2.8,2.8,0,0,1,0-.5V32ZM43.06,46c0-.12,0-.21,0-.29,0-4.91,0-9.82,0-14.73a.68.68,0,0,0-.21-.47L32.38,21.58c-.08-.07-.17-.12-.25-.18a.29.29,0,0,0-.1.08q-5.31,4.51-10.61,9a.78.78,0,0,0-.2.52q0,7.29,0,14.58V46h6.21V37c0-.76.27-1,1-1H35.7c.95,0,1.16.21,1.16,1.18V46Zm-7.8,0V37.55H29V46Z"/><path class="cls-3" d="M50.39,31a2.07,2.07,0,0,1-.38.4c-.31.22-.69.13-1.09-.22l-4.4-3.74L32.36,17.05l-.22-.17-.27.21-16.48,14a1.69,1.69,0,0,1-.74.35A.66.66,0,0,1,14,31a.73.73,0,0,1,.06-.78,2.13,2.13,0,0,1,.3-.3L31.45,15.37c.54-.46.85-.45,1.41,0l4.9,4.19.26.2c0-.14,0-.24,0-.34,0-.87,0-1.74,0-2.6a.86.86,0,0,1,1-1H42.4a.89.89,0,0,1,1,1c0,2.39,0,4.77,0,7.16a.6.6,0,0,0,.25.54q3.12,2.65,6.23,5.32a5.2,5.2,0,0,1,.51.63ZM39.62,17.48a23.13,23.13,0,0,1,0,2.5,1.87,1.87,0,0,0,.91,2A11.06,11.06,0,0,1,41.8,23V17.48ZM19.63,32l-.82.7c-.48.42-.93.44-1.25.06s-.24-.84.23-1.24L27,23.69l4.42-3.77c.57-.49.87-.49,1.43,0q6.82,5.84,13.66,11.66a.87.87,0,0,1,.36,1,.77.77,0,0,1-1.25.33c-.31-.24-.61-.51-1-.82V46.41a4.1,4.1,0,0,1,0,.5.75.75,0,0,1-.65.66,2.37,2.37,0,0,1-.46,0H20.77a3,3,0,0,1-.43,0,.78.78,0,0,1-.68-.67,2.8,2.8,0,0,1,0-.5V32ZM43.06,46c0-.12,0-.21,0-.29,0-4.91,0-9.82,0-14.73a.68.68,0,0,0-.21-.47L32.38,21.58c-.08-.07-.17-.12-.25-.18a.29.29,0,0,0-.1.08q-5.31,4.51-10.61,9a.78.78,0,0,0-.2.52q0,7.29,0,14.58V46h6.21V37c0-.76.27-1,1-1H35.7c.95,0,1.16.21,1.16,1.18V46Zm-7.7.11H28.92V37.45h6.44Zm-6.24-.2h6V37.65h-6Z"/></g></g></svg>