<svg xmlns="http://www.w3.org/2000/svg" viewBox="0 0 21.03 24.3"><defs><style>.cls-1{fill:#fff;stroke:#bf2850;stroke-miterlimit:10;stroke-width:0.35px;}</style></defs><g id="Слой_2" data-name="Слой 2"><g id="Подвал"><path class="cls-1" d="M.18,12.11V4.2a3.68,3.68,0,0,1,3.87-4H14.57a3.69,3.69,0,0,1,3.88,4c0,1.77,0,3.54,0,5.31a1,1,0,0,1-.64,1.05c-.62.22-1.16-.26-1.16-1,0-1.72-.06-3.44,0-5.15A2.06,2.06,0,0,0,14.41,2c-3.44.06-6.88,0-10.32,0C2.67,2.05,2,2.77,2,4.26V20c0,1.52.68,2.22,2.15,2.22.83,0,1.66,0,2.49,0a.94.94,0,0,1,1.06,1c0,.56-.41.91-1.06.91H3.83A3.65,3.65,0,0,1,.18,20.34C.17,17.59.18,14.85.18,12.11Z"/><path class="cls-1" d="M18.22,12.88a2.64,2.64,0,0,1,2.35,1.65,2.63,2.63,0,0,1-.41,3c-1.64,1.78-3.33,3.49-5,5.22a1.4,1.4,0,0,1-.61.33c-1.11.34-2.23.68-3.36,1a1.31,1.31,0,0,1-.95-.21c-.34-.22-.33-.64-.22-1,.32-1.08.62-2.17,1-3.23a2.47,2.47,0,0,1,.52-.92c1.55-1.64,3.13-3.26,4.7-4.89A2.82,2.82,0,0,1,18.22,12.88ZM16,16.51l-3,3.22a4.61,4.61,0,0,0-.75,2A4,4,0,0,0,14.9,20.4c.74-.89,1.58-1.67,2.37-2.49Zm2.59,0a.94.94,0,0,0,.17-1.45c-.4-.43-.9-.37-1.34.13Z"/><path class="cls-1" d="M9.34,5.8h4.33c.76,0,1.19.34,1.17.94s-.43.93-1.15.93H4.88c-.62,0-1-.27-1.08-.78a.91.91,0,0,1,1-1.09Z"/><path class="cls-1" d="M9.31,11.41H4.93a1.61,1.61,0,0,1-.72-.16.84.84,0,0,1-.4-1,.83.83,0,0,1,.8-.73c.38,0,.76,0,1.14,0h8.17a.93.93,0,0,1,0,1.86c-.79,0-1.59,0-2.39,0Z"/><text/></g></g></svg>