<svg xmlns="http://www.w3.org/2000/svg" viewBox="0 0 64.53 64.53"><defs><style>.cls-1{fill:none;stroke:#bf2850;stroke-miterlimit:10;stroke-width:1.2px;}.cls-2{fill:#bf2850;}</style></defs><g id="Слой_2" data-name="Слой 2"><g id="Преимущества"><circle class="cls-1" cx="32.27" cy="32.27" r="31.67"/><path class="cls-2" d="M12.78,38.42a.8.8,0,0,1,.79-.44h5.86a.63.63,0,0,1,.61.64.61.61,0,0,1-.65.59c-.74,0-1.48,0-2.22,0h-.45v1.43H18c.68,0,1.36,0,2,0a.38.38,0,0,0,.41-.27,4,4,0,0,1,7.27,0,.39.39,0,0,0,.4.28H40.58l.24,0v-.42c0-1.37,0-2.74,0-4.1a1,1,0,0,1,.31-.7c.38-.31.91,0,.92.57,0,.95,0,1.9,0,2.85,0,.5,0,1,0,1.49a1,1,0,0,0,.11.32c.1-.08.23-.15.28-.25a4,4,0,0,1,7.25-.09.49.49,0,0,0,.55.36c.4,0,.8,0,1.22,0V37.89h-.78A1.94,1.94,0,0,1,48.85,36c0-.45,0-.89,0-1.33a.62.62,0,0,1,.71-.69h1.79a1.77,1.77,0,0,0-1.62-1.38c-2.53,0-5.07,0-7.66,0,0,.24,0,.45,0,.67a.63.63,0,0,1-.59.65.64.64,0,0,1-.66-.63c0-.12,0-.24,0-.35v-11H16.69v11c0,.12,0,.23,0,.35a.62.62,0,0,1-.6.64.63.63,0,0,1-.64-.61,2,2,0,0,1,0-.35V22.2c0-1.1.48-1.58,1.56-1.58H40.51c1.1,0,1.56.46,1.56,1.56v1.08l.45,0c1.34,0,2.68,0,4,0a2.74,2.74,0,0,1,2.85,3.41c0,.21-.25.39-.43.65.3,1.2.62,2.5,1,3.79a.46.46,0,0,0,.28.25,3.3,3.3,0,0,1,2.56,3.31c0,2.13,0,4.27,0,6.4,0,.61-.21.82-.83.82H50.11a4.06,4.06,0,0,1-1.65,3.24,3.86,3.86,0,0,1-2.56.76,4,4,0,0,1-3.76-4H28.07a4,4,0,0,1-1.78,3.3,3.84,3.84,0,0,1-2.55.66,4,4,0,0,1-3.64-4l-.36,0c-.73,0-1.46,0-2.19,0-1.64.08-2.22-.36-2.11-2.14,0-.16,0-.33,0-.55-.63,0-1.22,0-1.82,0a.82.82,0,0,1-.84-.42Zm35.84-7.13a.71.71,0,0,0,0-.15c-.3-1.22-.62-2.44-.91-3.67-.06-.25-.21-.25-.4-.25H42.4a1.54,1.54,0,0,0-.3,0v4ZM46.14,44.66A2.71,2.71,0,1,0,43.41,42,2.73,2.73,0,0,0,46.14,44.66Zm-22,0A2.71,2.71,0,1,0,21.37,42,2.72,2.72,0,0,0,24.09,44.66ZM48.15,25.94a1.34,1.34,0,0,0-1.4-1.4H42.38l-.28,0v1.38Zm2,9.3c-.15,1.22.18,1.54,1.36,1.36V35.24Zm-11.51,4c.5,0,.78-.23.78-.62s-.29-.62-.77-.63h-8.9a1.83,1.83,0,0,0-.47,0,.56.56,0,0,0-.45.6.57.57,0,0,0,.52.59,2.55,2.55,0,0,0,.39,0h8.9Zm-16-2.67c.47,0,.75-.23.76-.61s-.29-.64-.77-.64H14.89c-.48,0-.78.25-.78.63s.29.62.79.62h7.72Zm23.49,4.1A1.27,1.27,0,0,0,44.84,42a1.3,1.3,0,0,0,1.3,1.28,1.32,1.32,0,0,0,1.28-1.32A1.29,1.29,0,0,0,46.11,40.66Zm-22,0A1.3,1.3,0,0,0,22.79,42a1.32,1.32,0,0,0,1.3,1.3,1.3,1.3,0,0,0,1.28-1.31A1.27,1.27,0,0,0,24.08,40.66Z"/></g></g></svg>