<svg xmlns="http://www.w3.org/2000/svg" viewBox="0 0 69.04 69.04"><defs><style>.cls-1{isolation:isolate;}.cls-2{mix-blend-mode:screen;}.cls-3{fill:#fff;}</style></defs><g class="cls-1"><g id="Слой_2" data-name="Слой 2"><g id="Титул"><g class="cls-2"><path class="cls-3" d="M67.48,66.33a2.31,2.31,0,0,0-.33-.58c-4.1-4.14-7.87-7.92-11.53-11.54a1.2,1.2,0,0,0-.81-.37h0a.87.87,0,0,0-.64.29,1.07,1.07,0,0,0,.15,1.46c.1.12.22.23.34.35L57,58.33l8.37,8.37a3.55,3.55,0,0,0,.7.61.83.83,0,0,0,.86,0,1.15,1.15,0,0,0,.53-.93Z"/><path class="cls-3" d="M35.31,14.75h0a20.48,20.48,0,0,0-.06,41h0a20.48,20.48,0,0,0,0-40.95ZM53.64,37.24c-.43,7.92-7.51,16.5-18.19,16.56h-.12C23.65,53.8,17.19,44.19,17,37.21l0-1H20c1.59,0,3.24,0,4.87,0a1.67,1.67,0,0,0,1.81-1.11c.39-.87.82-1.71,1.28-2.6l.63-1.25.82-1.63,1.26,2.1c.21.35.4.65.57,1l2.58,4.67Q35.9,41,38,44.72c.52.93,1,1.27,1.25,1.27h0c.27,0,.75-.33,1.3-1.25s1-1.66,1.5-2.48c.94-1.56,1.88-3.12,2.79-4.69a2.6,2.6,0,0,1,2.5-1.4c1.26,0,2.55,0,3.8,0H53.7Zm.1-3.13-1.36.13c-.32,0-.64.06-1,.07h-.84c-1.71,0-3.42,0-5.13,0a1.47,1.47,0,0,0-1.43.83c-.86,1.48-1.74,2.94-2.67,4.47l-2.1,3.47-3-5.32c-1.9-3.41-3.75-6.72-5.58-10-.53-.95-.78-1.21-1.29-1.19s-.71.24-1.17,1.17l-.83,1.66c-.57,1.11-1.15,2.26-1.67,3.4a2.53,2.53,0,0,1-2.62,1.58c-1.18,0-2.39,0-3.56,0H17.15l-.06-.94c-.21-3.36,1.22-6.93,4-10.07a19.48,19.48,0,0,1,13.15-6.59,18.37,18.37,0,0,1,19.4,16.41Z"/></g><path class="cls-3" d="M34.52,0A34.52,34.52,0,1,0,53.1,63.58l-.8-.74a33.5,33.5,0,1,1,11.38-12l.77.79A34.48,34.48,0,0,0,34.52,0Z"/></g></g></g></svg>