<svg xmlns="http://www.w3.org/2000/svg" viewBox="0 0 20.73 18.18"><defs><style>.cls-1{fill:#fff;}</style></defs><g id="Слой_2" data-name="Слой 2"><g id="Подвал"><path class="cls-1" d="M2.5,18.18A3.37,3.37,0,0,1,1.36,18l-.82-.28.63-.6a3.26,3.26,0,0,0,1.06-2.38A8.43,8.43,0,0,1,0,9.09C0,4.08,4.65,0,10.36,0S20.73,4.08,20.73,9.09s-4.65,9.09-10.37,9.09a11.51,11.51,0,0,1-4.87-1.07A5.46,5.46,0,0,1,2.5,18.18Zm2.86-2.31.31.16a10.54,10.54,0,0,0,4.69,1.1c5.14,0,9.31-3.61,9.31-8s-4.17-8-9.31-8-9.31,3.61-9.31,8a7.4,7.4,0,0,0,2.09,5.07l.14.14v.2a4.31,4.31,0,0,1-.74,2.63A4.68,4.68,0,0,0,5.1,16.08Z"/><circle class="cls-1" cx="6.6" cy="9.55" r="1.02"/><circle class="cls-1" cx="10.46" cy="9.55" r="1.02"/><circle class="cls-1" cx="14.32" cy="9.55" r="1.02"/></g></g></svg>