<svg xmlns="http://www.w3.org/2000/svg" viewBox="0 0 21.42 21.4"><defs><style>.cls-1{fill:#fff;}</style></defs><g id="Слой_2" data-name="Слой 2"><g id="Подвал"><path class="cls-1" d="M15.06.93A10.68,10.68,0,0,0,.18,12.52,10.41,10.41,0,0,0,8,21a10.12,10.12,0,0,0,5.22,0l.1,0a.35.35,0,0,1,.25.09.73.73,0,0,0,.59.25.7.7,0,0,0,.47-.43l.64-1.34,1.29-2.7a.83.83,0,0,1,.36-.36l2.51-1.2L21,14.63a.66.66,0,0,0,.39-.47.62.62,0,0,0-.23-.56.42.42,0,0,1-.1-.36,11.15,11.15,0,0,0,.31-2.48A10.71,10.71,0,0,0,15.06.93Zm-.25,1.21a9.61,9.61,0,0,1,4.3,4.16l.1.18H15.72L14.56,2Zm-4.66,8.78c.18.56.37,1.13.56,1.7l.36,1.07H6.76v-.11a23.29,23.29,0,0,1,0-5.78V7.69h7.93l.2,3.76-.42-.14-.35-.11-3.14-1a.66.66,0,0,0-.62,0A.59.59,0,0,0,10.15,10.92ZM7,6.32l.12-.56c.1-.44.19-.86.31-1.27.18-.6.38-1.19.57-1.77.1-.31.21-.63.31-1a.46.46,0,0,1,.38-.35,9.19,9.19,0,0,1,4.14,0,.41.41,0,0,1,.29.24,25.8,25.8,0,0,1,1.31,4.48.53.53,0,0,1,0,.13v.19H6.92Zm-4.67,0A9.54,9.54,0,0,1,6.58,2.14L6.82,2,5.66,6.48H2.19ZM2,13.7a.33.33,0,0,1-.36-.26A9.39,9.39,0,0,1,1.61,8a.31.31,0,0,1,.32-.28H5.4l.14,0v.11a25.26,25.26,0,0,0,0,5.7v.13H2Zm4.61,5.53a9.54,9.54,0,0,1-4.29-4.14l-.1-.18H5.66l1.16,4.44Zm6.41.68a9,9,0,0,1-2.16.28,4.43,4.43,0,0,1-.52,0A12,12,0,0,1,9,20l-.34,0a.43.43,0,0,1-.3-.24A24.45,24.45,0,0,1,7,15.12a.08.08,0,0,1,0-.07V15l.14,0,.14,0H11.2a.31.31,0,0,1,.35.23c.39,1.17.78,2.34,1.16,3.51l.34,1a.19.19,0,0,1,0,.08l0,.12Zm5.66-5.48-.53.25-.23.11c-.61.29-1.21.58-1.83.86a.86.86,0,0,0-.41.43c-.35.76-.71,1.52-1.07,2.28l-.16.32s0,.09-.07.14l-.19.37-.09-.28c-.79-2.35-1.56-4.66-2.35-7l-.08-.24,7.58,2.53ZM19.91,13l0,.13-1.68-.56-1.92-.64c-.11,0-.26-.16-.26-.3v-.84c0-.35,0-.7,0-1s-.05-.85-.09-1.3c0-.2,0-.41,0-.61V7.68h3.56a.32.32,0,0,1,.35.24A9.39,9.39,0,0,1,19.91,13Z"/></g></g></svg>