<svg xmlns="http://www.w3.org/2000/svg" viewBox="0 0 36.29 36.32"><g data-name="Слой 2"><path d="M30.09 34.92c1.33-1.29 2.32-2.31 3.2-3.32a3.11 3.11 0 000-4.2c-1.46-1.54-3-3.13-5-5a2.88 2.88 0 00-3.47-.4 9 9 0 00-1.51 1.21c-.5.47-.94.92-1.41 1.4-.19.21-.4.41-.6.62l-.13.13-.17-.12-.51-.24c-.37-.2-.72-.38-1.07-.6a24.53 24.53 0 01-4.71-4 20.56 20.56 0 01-3.55-4.86.6.6 0 01.14-.8l.56-.55c.69-.69 1.41-1.4 2.06-2.14A3 3 0 0013.9 8c-1.74-1.86-3.3-3.45-4.79-4.84a3.13 3.13 0 00-4.6 0C3.71 3.77 3 4.55 2.24 5.3l-.72.75A5.07 5.07 0 00.16 8.66c0 .28-.08.57-.12.86v.87c0 .16 0 .36.07.55a11 11 0 00.18 1.28 20.56 20.56 0 001.94 5.43 37.25 37.25 0 0013.41 14.77 26.2 26.2 0 007.43 3.42c.51.13 1 .22 1.55.3l.76.13h1.55l.22-.05a5.05 5.05 0 002.94-1.3zm-3.85-.19a4.7 4.7 0 01-.53 0 17.37 17.37 0 01-6.12-1.91 35.62 35.62 0 01-14.72-13.6 23.34 23.34 0 01-3-7.15v-.11a4 4 0 01-.09-.48c0-.3-.06-.59-.09-.88v-.39A4.27 4.27 0 013 6.77c.48-.46 1-.93 1.42-1.4l1-1a1.72 1.72 0 012.17-.47 2.93 2.93 0 01.6.45C9.36 5.58 10.54 6.77 11.73 8l.63.64.23.25a1.61 1.61 0 010 2.36c-.8.85-1.65 1.67-2.37 2.37-1.06 1-1.11 1.28-.51 2.58a18.56 18.56 0 003 4.4 26.49 26.49 0 005.86 5.16 22.74 22.74 0 002 1.11 1.3 1.3 0 001.62-.32l1.61-1.6.86-.86.32-.31a1.63 1.63 0 012.44.05c.81.79 1.6 1.58 2.39 2.38l.82.81c.44.45.91.91 1.34 1.38a1.66 1.66 0 01.06 2.28 2.64 2.64 0 01-.35.4l-.85.88c-.51.51-1 1-1.51 1.54a4.07 4.07 0 01-3.08 1.23zm9.23-21.81A19.35 19.35 0 0030 4.74 19.66 19.66 0 0021.65.3c-.36-.09-.72-.16-1-.22L20.19 0a.83.83 0 00-.84.64.78.78 0 00.49.88 2.74 2.74 0 00.53.14 17.5 17.5 0 017.29 3.2 17.88 17.88 0 016.66 9.73q.12.44.21.87c.07.3.13.61.22.91a.77.77 0 00.92.56.84.84 0 00.51-.33.74.74 0 00.09-.59l-.09-.38a25.72 25.72 0 00-.71-2.71zm-12.76-5.4a10.05 10.05 0 00-2.79-.83.9.9 0 00-.65.24.83.83 0 00-.22.57c0 .41.26.68.76.78a10.11 10.11 0 017.5 6 9.9 9.9 0 01.53 1.65l.21.74a.82.82 0 001 .63.81.81 0 00.6-1 11.78 11.78 0 00-6.94-8.78z" fill="#bf2850" data-name="Как мы работаем"/></g></svg>