<svg xmlns="http://www.w3.org/2000/svg" viewBox="0 0 42.09 44.6"><defs><style>.cls-1{fill:#fff}</style></defs><g id="Слой_2" data-name="Слой 2"><g id="Как_мы_работаем" data-name="Как мы работаем"><path class="cls-1" d="M32.84 5.41v16.11l1.85.32v-5c0-4.33 0-8.42-.06-12.59C34.58 1.72 32.52 0 29.51 0H5.3C1.9 0 0 2 0 5.43v29.92c0 3.68 1.81 5.48 5.51 5.5h14.4a7.13 7.13 0 00.79-.05h.12a2.2 2.2 0 00-2.6-1.93c-3.37.12-6.8.09-10.12.06H5.23C3 38.88 2 37.82 2 35.65V5.26C2 3 3.07 1.94 5.35 1.94h24.06c2.29 0 3.42 1.14 3.43 3.47z"/><path class="cls-1" d="M31.58 23.42A10.64 10.64 0 1039 26.57a10.43 10.43 0 00-7.42-3.15zm0 19.55a8.94 8.94 0 110-17.88 8.77 8.77 0 016.27 2.62A9 9 0 0131.56 43zM8.82 14.14c-.27 0-.6.29-.92.58a.38.38 0 000 .41 2.22 2.22 0 001 .57c2.06.07 4.16.06 6.2.05h10.67c.53 0 1.06 0 1.29-.28a.66.66 0 00.12-.55 1.91 1.91 0 00-1.32-.78c-5.7-.08-11.43-.08-17.04 0zm.1 5.46c-.53 0-1 0-1.26.29a.67.67 0 00-.09.58c0 .25.85.74 1.36.76 2.05.07 4.15.06 6.17.05h4.37c2.06 0 4.2 0 6.29-.05a2 2 0 001.37-.73.7.7 0 00-.1-.58 1.85 1.85 0 00-1.26-.29zM9 8.53c-.49 0-1.06 0-1.31.26a.75.75 0 00-.19.58c0 .73.46.82 1.42.82h16.87a2 2 0 001.38-.75.68.68 0 00-.1-.57c-.21-.25-.74-.29-1.27-.29z"/><path class="cls-1" d="M34.26 31.19l-2.48 3.06L30.39 36l-.19-.18c-.28-.25-.53-.51-.77-.75a7.38 7.38 0 00-1.55-1.33 2.51 2.51 0 00-1.13-.27 1.17 1.17 0 00-.64.15.83.83 0 00-.42.62 1.61 1.61 0 00.58 1.14l.82.78c.75.72 1.51 1.44 2.25 2.19a1.69 1.69 0 001.21.62 1.76 1.76 0 001.18-.81c1.11-1.42 2.24-2.81 3.37-4.21l1-1.21a2 2 0 00.61-1.36 1.1 1.1 0 00-.51-.74c-.67-.54-1.2-.37-1.94.55z"/></g></g></svg>