<svg xmlns="http://www.w3.org/2000/svg" viewBox="0 0 41.62 32.94"><defs><style>.cls-1{fill:#bf2850}</style></defs><g id="Слой_2" data-name="Слой 2"><g id="Как_мы_работаем" data-name="Как мы работаем"><path class="cls-1" d="M35.78 26.81h1.29a3 3 0 003-2.66c.14-1.59.27-3.21.4-4.77l.18-2.19.28-3.19c.11-1.36.23-2.71.34-4.07 0-.4.07-.81.11-1.22.09-1 .18-2.06.24-3.09a3 3 0 00-2.56-3.12c-.58-.08-1.18-.13-1.76-.17h-.51l-6-.5-7.26-.6L16.3.59 9.42 0a3 3 0 00-3.28 2.56C6.05 3.25 6 4 5.91 4.64c0 .33-.07.67-.11 1l-.3 2.79H3.12A3 3 0 00.3 10.17a3.51 3.51 0 00-.21.57L0 11v19.35a.31.31 0 01.05.1 3 3 0 003.3 2.49H32.7a3 3 0 002.76-2.18 6.72 6.72 0 00.14-1.35v-2.6zM1.46 11.08a1.44 1.44 0 011.26-1.22 2.88 2.88 0 01.55 0h29.46a1.61 1.61 0 011.51 1.52 12 12 0 010 1.2v.7H1.44v-.75a8.46 8.46 0 01.02-1.45zm32.76 3.58v3.61H1.42v-3.61zm0 15a1.7 1.7 0 01-1.93 1.93h-29a1.69 1.69 0 01-1.92-1.93v-9.94h32.89zm1.38-18a3 3 0 00-2.31-3.11 4.92 4.92 0 00-1.11-.1H6.9l.1-1.2c.07-.62.13-1.23.19-1.85l.06-.5c.07-.67.14-1.37.23-2.06a1.6 1.6 0 011.81-1.45l5 .42 19.27 1.61 4.93.41a1.93 1.93 0 011.37.6 1.92 1.92 0 01.37 1.43q-.3 3.41-.58 6.8l-.4 4.85c-.18 2.16-.37 4.31-.55 6.47a1.62 1.62 0 01-1.7 1.53l-.8-.06h-.53v-13.8z"/><path class="cls-1" d="M30.56 22.37h-7.6c-.58 0-.81.23-.82.83V28c0 .64.23.86.87.86h7.52c.63 0 .87-.24.87-.87v-4.76c0-.62-.24-.86-.84-.86zM30 27.46h-6.44v-3.68H30z"/></g></g></svg>