<svg xmlns="http://www.w3.org/2000/svg" viewBox="0 0 65.86 93.89"><defs><style>.cls-4{fill:#fff}</style></defs><g id="Слой_2" data-name="Слой 2"><g id="Онлайн_диагностика" data-name="Онлайн диагностика"><text transform="translate(16.31 90.26)" fill="#fff" font-size="15" font-family="Magistral-Book,Magistral">SMS</text><circle cx="32.93" cy="32.93" r="26.51" fill="#bf2850"/><circle cx="32.93" cy="32.93" r="32.43" fill="none" stroke="#fff" stroke-miterlimit="10"/><path class="cls-4" d="M22.15 43.83a7.42 7.42 0 004-1.45h.12A15.75 15.75 0 0033 43.83c7.81 0 14.15-5.56 14.15-12.39S40.78 19 33 19s-14.14 5.57-14.14 12.4a11.49 11.49 0 003 7.68v.05a4.69 4.69 0 01-1.49 3.37l-.72.68.93.32a4.63 4.63 0 001.57.33zM20 31.44c0-6.17 5.84-11.19 13-11.19s13 5 13 11.19-5.89 11.19-13 11.19a14.51 14.51 0 01-6.52-1.53l-.34-.17-.31.24a6.66 6.66 0 01-3.59 1.46H22l.14-.19a5.91 5.91 0 001-3.54v-.23l-.15-.16A10.31 10.31 0 0120 31.44z"/><circle class="cls-4" cx="27.8" cy="32.07" r="1.15"/><circle class="cls-4" cx="33.11" cy="32.07" r="1.15"/><circle class="cls-4" cx="38.42" cy="32.07" r="1.15"/></g></g></svg>