<svg xmlns="http://www.w3.org/2000/svg" viewBox="0 0 65.86 93.89"><g data-name="Слой 2"><g data-name="Онлайн диагностика"><text transform="translate(2.42 90.26)" fill="#fff" font-size="15" font-family="Magistral-Book,Magistral"><tspan letter-spacing="-.09em">T</tspan><tspan x="8.54" y="0">eleg</tspan><tspan x="36.13" y="0" letter-spacing="-.02em">r</tspan><tspan x="40.38" y="0">am</tspan></text><circle cx="32.93" cy="32.93" r="26.51" fill="#2a85bc"/><circle cx="32.93" cy="32.93" r="32.43" fill="none" stroke="#fff" stroke-miterlimit="10"/><path d="M42.69 31.61l.75-3.93c.16-.82.32-1.63.49-2.43.2-1 .41-2.08.61-3.12a.89.89 0 000-.5c-.36-.56-.55-.65-1-.47q-1.5.57-3 1.17l-15.89 6.33-6.87 2.74a2.3 2.3 0 00-.63.38.59.59 0 00.05 1 3.64 3.64 0 00.84.44c1.83.73 3.67 1.44 5.51 2.15h.13a1.37 1.37 0 01.88 1c.26.93.5 1.86.75 2.79s.5 1.86.76 2.79l.05.19a8.29 8.29 0 00.38 1.19.56.56 0 00.83.31 2.69 2.69 0 00.55-.31l2.42-1.73.68-.49c.53-.38.7-.38 1.25 0l4.52 3.05 1.4 1 .48.33H40a3 3 0 00.18-.5c.28-1.42.55-2.86.82-4.28zm-16.23 5.87l-.26-.93c-.07-.22-.13-.42-.18-.63s-.12-.49-.17-.74a1.26 1.26 0 00-.89-.94l-3-1.12-1.07-.41a.88.88 0 01-.39-.26l-.38-.4 21.68-8.78zm1.1 4.21l-.79-2.94 1.09-.75 2.39 1.73zm11.3 2.05L29 37.09 42.84 23.8z" fill="#fff"/></g></g></svg>