<svg xmlns="http://www.w3.org/2000/svg" viewBox="0 0 64.53 64.53"><g data-name="Слой 2"><circle cx="32.27" cy="32.27" r="31.67" stroke="#bf2850" stroke-miterlimit="10" stroke-width="1.2" fill="none"/><path d="M50.39 31a2.07 2.07 0 01-.38.4c-.31.22-.69.13-1.09-.22l-4.4-3.74-12.16-10.39-.22-.17-.27.21-16.48 14a1.69 1.69 0 01-.74.35A.66.66 0 0114 31a.73.73 0 01.06-.78 2.13 2.13 0 01.3-.3l17.09-14.55c.54-.46.85-.45 1.41 0l4.9 4.19.26.2v-2.94a.86.86 0 011-1h3.38a.89.89 0 011 1v7.16a.6.6 0 00.25.54q3.12 2.65 6.23 5.32a5.2 5.2 0 01.51.63zM39.62 17.48a23.13 23.13 0 010 2.5 1.87 1.87 0 00.91 2A11.06 11.06 0 0141.8 23v-5.52zM19.63 32l-.82.7c-.48.42-.93.44-1.25.06s-.24-.84.23-1.24L27 23.69l4.42-3.77c.57-.49.87-.49 1.43 0q6.82 5.84 13.66 11.66a.87.87 0 01.36 1 .77.77 0 01-1.25.33c-.31-.24-.61-.51-1-.82v14.32a4.1 4.1 0 010 .5.75.75 0 01-.65.66 2.37 2.37 0 01-.46 0H20.77a3 3 0 01-.43 0 .78.78 0 01-.68-.67 2.8 2.8 0 010-.5V32zm23.43 14V30.98a.68.68 0 00-.21-.47l-10.47-8.93c-.08-.07-.17-.12-.25-.18a.29.29 0 00-.1.08q-5.31 4.51-10.61 9a.78.78 0 00-.2.52v15h6.21v-9c0-.76.27-1 1-1h7.27c.95 0 1.16.21 1.16 1.18V46zm-7.8 0v-8.45H29V46z" fill="#bf2850"/><path d="M50.39 31a2.07 2.07 0 01-.38.4c-.31.22-.69.13-1.09-.22l-4.4-3.74-12.16-10.39-.22-.17-.27.21-16.48 14a1.69 1.69 0 01-.74.35A.66.66 0 0114 31a.73.73 0 01.06-.78 2.13 2.13 0 01.3-.3l17.09-14.55c.54-.46.85-.45 1.41 0l4.9 4.19.26.2v-2.94a.86.86 0 011-1h3.38a.89.89 0 011 1v7.16a.6.6 0 00.25.54q3.12 2.65 6.23 5.32a5.2 5.2 0 01.51.63zM39.62 17.48a23.13 23.13 0 010 2.5 1.87 1.87 0 00.91 2A11.06 11.06 0 0141.8 23v-5.52zM19.63 32l-.82.7c-.48.42-.93.44-1.25.06s-.24-.84.23-1.24L27 23.69l4.42-3.77c.57-.49.87-.49 1.43 0q6.82 5.84 13.66 11.66a.87.87 0 01.36 1 .77.77 0 01-1.25.33c-.31-.24-.61-.51-1-.82v14.32a4.1 4.1 0 010 .5.75.75 0 01-.65.66 2.37 2.37 0 01-.46 0H20.77a3 3 0 01-.43 0 .78.78 0 01-.68-.67 2.8 2.8 0 010-.5V32zm23.43 14V30.98a.68.68 0 00-.21-.47l-10.47-8.93c-.08-.07-.17-.12-.25-.18a.29.29 0 00-.1.08q-5.31 4.51-10.61 9a.78.78 0 00-.2.52v15h6.21v-9c0-.76.27-1 1-1h7.27c.95 0 1.16.21 1.16 1.18V46zm-7.7.11h-6.44v-8.66h6.44zm-6.24-.2h6v-8.26h-6z" fill="none"/></g></svg>