<svg xmlns="http://www.w3.org/2000/svg" viewBox="0 0 105.26 70.13"><defs><style>.cls-1{fill:#fff}</style></defs><g id="Слой_2" data-name="Слой 2"><g id="Отзывы"><path class="cls-1" d="M17.76 60.23h-7.31a11.69 11.69 0 01-2.65-.28A10.05 10.05 0 010 50V22a10.17 10.17 0 0110.53-10.49h60c1.8 0 2.89 1.29 2.41 2.8a2.13 2.13 0 01-2.08 1.5H10.64c-3.9 0-6.36 2.47-6.36 6.38v27.4c0 3.91 2.46 6.41 6.37 6.41h9c1.86 0 2.64.79 2.59 2.63-.05 2-.14 4-.16 6 0 .37.12.93.37 1.07s.79-.07 1.08-.28q5.84-4.33 11.61-8.72a3.52 3.52 0 012.28-.7h47.66a5.88 5.88 0 006-4.33 7.79 7.79 0 00.22-2V32.92a2.16 2.16 0 012.11-2.31 2.18 2.18 0 012.18 2.26V49.3c0 .69 0 1.39-.11 2.08a10 10 0 01-9.4 8.81c-4.49.11-43.24 0-47.73.06a2.64 2.64 0 00-1.42.46c-3.73 2.76-7.41 5.58-11.14 8.35A5 5 0 0118.63 68a5.06 5.06 0 01-.87-3c.02-1.59 0-3.12 0-4.77z"/><path class="cls-1" d="M80.8 23.67c.13-1.73.27-3.41.35-5.09a1.87 1.87 0 00-.35-1.13c-1-1.26-2.07-2.47-3.09-3.72a3.59 3.59 0 011.93-6c1.56-.4 3.14-.75 4.68-1.19a1.81 1.81 0 001-.7c.88-1.32 1.69-2.69 2.54-4a3.7 3.7 0 016.37 0c.84 1.31 1.68 2.63 2.47 4a1.63 1.63 0 001.15.81c1.49.34 3 .72 4.47 1.11a3.61 3.61 0 012 6.07c-1 1.21-2 2.38-3 3.6a2 2 0 00-.39 1.19c.06 1.68.25 3.36.31 5.05a3.48 3.48 0 01-3.11 3.72 4.53 4.53 0 01-2-.3c-1.52-.54-3-1.21-4.49-1.77a1.69 1.69 0 00-1.11 0c-1.6.6-3.16 1.3-4.77 1.89a3.58 3.58 0 01-4.96-3.54zm.78-12c1 1.22 1.9 2.37 2.88 3.4a3.78 3.78 0 011 3.33c-.18 1.39-.21 2.81-.31 4.34l.78-.3c1.28-.52 2.58-1 3.85-1.57a2.78 2.78 0 012.36 0c1.3.56 2.62 1.07 3.92 1.6l.73.25c-.08-1-.16-1.91-.2-2.8-.18-3.89-.74-2.83 1.81-5.88l.82-1 1.18-1.4c-1.62-.41-3.1-.83-4.6-1.14a3.33 3.33 0 01-2.32-1.7c-.76-1.32-1.61-2.6-2.47-4-.91 1.48-1.79 2.82-2.61 4.2a3 3 0 01-2 1.48c-1.59.35-3.15.77-4.82 1.19zM65.44 28.32h11.62a2.15 2.15 0 11.19 4.29H19.8a2.27 2.27 0 01-2.38-1.41 2.13 2.13 0 012-2.88h7.22zm-39.8 10.85h40.61a2.1 2.1 0 011 3.91 2.79 2.79 0 01-1.27.33h-46.4a2.14 2.14 0 11.05-4.27h6z"/></g></g></svg>