<svg xmlns="http://www.w3.org/2000/svg" viewBox="0 0 21.42 21.4"><path d="M15.06.93A10.68 10.68 0 00.18 12.52 10.41 10.41 0 008 21a10.12 10.12 0 005.22 0h.1a.35.35 0 01.25.09.73.73 0 00.59.25.7.7 0 00.47-.43l.64-1.34 1.29-2.7a.83.83 0 01.36-.36l2.51-1.2 1.57-.68a.66.66 0 00.39-.47.62.62 0 00-.23-.56.42.42 0 01-.1-.36 11.15 11.15 0 00.31-2.48A10.71 10.71 0 0015.06.93zm-.25 1.21a9.61 9.61 0 014.3 4.16l.1.18h-3.49L14.56 2zm-4.66 8.78c.18.56.37 1.13.56 1.7l.36 1.07H6.76v-.11a23.29 23.29 0 010-5.78v-.11h7.93l.2 3.76-.42-.14-.35-.11-3.14-1a.66.66 0 00-.62 0 .59.59 0 00-.21.72zM7 6.32l.12-.56c.1-.44.19-.86.31-1.27.18-.6.38-1.19.57-1.77.1-.31.21-.63.31-1a.46.46 0 01.38-.35 9.19 9.19 0 014.14 0 .41.41 0 01.29.24 25.8 25.8 0 011.31 4.48.53.53 0 010 .13v.19H6.92zm-4.67 0a9.54 9.54 0 014.25-4.18L6.82 2 5.66 6.48H2.19zM2 13.7a.33.33 0 01-.36-.26A9.39 9.39 0 011.61 8a.31.31 0 01.32-.28h3.61v.11a25.26 25.26 0 000 5.7v.13H2zm4.61 5.53a9.54 9.54 0 01-4.29-4.14l-.1-.18h3.44l1.16 4.44zm6.41.68a9 9 0 01-2.16.28 4.43 4.43 0 01-.52 0A12 12 0 019 20h-.34a.43.43 0 01-.3-.24A24.45 24.45 0 017 15.12a.08.08 0 010-.07V15h4.2a.31.31 0 01.35.23c.39 1.17.78 2.34 1.16 3.51l.34 1a.19.19 0 010 .08v.12zm5.66-5.48l-.53.25-.23.11c-.61.29-1.21.58-1.83.86a.86.86 0 00-.41.43c-.35.76-.71 1.52-1.07 2.28l-.16.32s0 .09-.07.14l-.19.37-.09-.28c-.79-2.35-1.56-4.66-2.35-7l-.08-.24 7.58 2.53zM19.91 13v.13l-1.68-.56-1.92-.64c-.11 0-.26-.16-.26-.3V9.79c0-.3-.05-.85-.09-1.3v-.81h3.56a.32.32 0 01.35.24 9.39 9.39 0 01.04 5.08z" fill="#fff" data-name="Слой 2"/></svg>