<svg xmlns="http://www.w3.org/2000/svg" viewBox="0 0 68.82 68.82"><defs><style>.cls-1{fill:#fff}</style></defs><g id="Слой_2" data-name="Слой 2"><g id="Титул"><path class="cls-1" d="M34.44 10.39A24.36 24.36 0 0017.2 52a24.07 24.07 0 0017.17 7.11h.05a24.34 24.34 0 000-48.68zM39 46.85c.08 2.22.06 4.42 0 6.75v3.95h-9.23V45.53a2.58 2.58 0 00-1.4-2.6 10.51 10.51 0 01-4.78-7.16 11.48 11.48 0 012.5-9.05l1.57-2v4.31a13.78 13.78 0 00.08 2.97 4.06 4.06 0 00.93 1.53c.12.17.25.33.38.5a1.8 1.8 0 01.65.31c3 2.34 6 2.18 10.32-.56a2.56 2.56 0 00.98-1.6 17.65 17.65 0 00.08-3v-3.66L42.54 27a9.49 9.49 0 012.79 8A10.22 10.22 0 0141 42.43c-1.83 1.13-2.13 2.38-2 4.42zm2.38 9.55l-1 .2v-3.62c0-2.36 0-4.81.09-7.21 0-1 1-1.8 1.74-2.43l.12-.1a12.43 12.43 0 004.44-9.82A12 12 0 0042 24.14a3.41 3.41 0 00-1.72-.73 5.18 5.18 0 00-.47 1.85 14.13 14.13 0 000 3.26c.29 2.85-.61 4.47-3.14 5.58s-4.1.13-5.59-.7l-1-.5c-.8-.38-1-1.56-1-2.47v-2.6c0-1.07 0-2.18-.05-3.25a2.3 2.3 0 00-.44-1.23 2.56 2.56 0 00-1.25.42 11.55 11.55 0 00-5.2 9.23 12.35 12.35 0 004.4 10.2 4.61 4.61 0 012 4.17c-.09 1.89-.07 3.85-.05 5.73v3.46l-1-.18c-9.4-1.64-16.87-12.88-16-24S22.47 11.79 34 11.68h.24c12.2 0 21.9 9 23.12 21.46 1.02 10.18-6.79 21.48-16.03 23.26z"/><path class="cls-1" d="M34.41 68.82a34.41 34.41 0 1134.41-34.41 34.45 34.45 0 01-34.41 34.41zm0-67.76a33.35 33.35 0 1033.35 33.35A33.39 33.39 0 0034.41 1.06z"/></g></g></svg>