<svg xmlns="http://www.w3.org/2000/svg" viewBox="0 0 163.97 20.56"><g fill="#ff8140" data-name="Слой 2"><path d="M12.52 5.99l6.6.96-4.78 4.66 1.13 6.58-5.91-3.11-5.91 3.1 1.13-6.58L0 6.94l6.61-.95L9.56 0l2.96 5.99zm21.84 0l6.61.96-4.78 4.66 1.12 6.58-5.9-3.11-5.91 3.1 1.13-6.58-4.78-4.66 6.6-.95L31.41 0l2.95 5.99zm21.85 0l6.6.96-4.78 4.66 1.13 6.58-5.91-3.11-5.91 3.1 1.13-6.58-4.78-4.66 6.61-.95L53.26 0l2.95 5.99zm21.85 0l6.6.96-4.78 4.66 1.13 6.58-5.91-3.11-5.91 3.1 1.13-6.58-4.78-4.66 6.61-.95L75.1 0l2.96 5.99zm21.84 0l6.61.96-4.78 4.66 1.12 6.58-5.9-3.11-5.91 3.1 1.13-6.58-4.78-4.66 6.6-.95L96.95 0l2.95 5.99z"/><text transform="translate(117.81 15.68)" font-size="18.43" font-family="Montserrat-SemiBold,Montserrat" font-weight="600"><tspan letter-spacing=".02em">4</tspan><tspan x="12.88" y="0">.</tspan><tspan x="17.38" y="0" letter-spacing="-.02em">9</tspan><tspan x="28.56" y="0">/5</tspan></text></g></svg>