<svg xmlns="http://www.w3.org/2000/svg" viewBox="0 0 68.56 93.89"><g data-name="Слой 2"><g data-name="Онлайн диагностика"><text transform="translate(0 90.26)" fill="#fff" font-size="15" font-family="Magistral-Book,Magistral">Wha<tspan x="31.35" y="0" letter-spacing=".01em">t</tspan><tspan x="36.27" y="0">sapp</tspan></text><circle cx="33.72" cy="32.93" r="26.51" fill="#1eac0f"/><circle cx="33.72" cy="32.93" r="32.43" fill="none" stroke="#fff" stroke-miterlimit="10"/><path d="M26.48 44.72a3.24 3.24 0 012.6.14 13.5 13.5 0 0012.85-1 13.31 13.31 0 006.27-11 13.55 13.55 0 00-13.54-13.78 13.8 13.8 0 00-10.13 4.43 13.27 13.27 0 00-2 15.13 2.73 2.73 0 01.08 2.36c-.51 1.4-1 2.82-1.48 4.33l-.41 1.24 1.3-.41c1.56-.48 2.98-.94 4.46-1.44zM28.82 22a12.23 12.23 0 0115.08 2.9 11.88 11.88 0 01.18 15.1 12.13 12.13 0 01-9.46 4.56 11.83 11.83 0 01-5.54-1.37 2.37 2.37 0 00-2.2-.17c-.64.25-1.31.45-2 .65l-.86.26L24 44l-1.14-.2.37-.49c1.72-2.28 1-4.32.11-6.67l-.19-.53A11.63 11.63 0 0128.82 22z" fill="#fff"/></g></g></svg>