<svg xmlns="http://www.w3.org/2000/svg" viewBox="0 0 64.53 64.53"><g data-name="Слой 2"><circle cx="32.27" cy="32.27" r="31.67" fill="none" stroke="#bf2850" stroke-miterlimit="10" stroke-width="1.2"/><path d="M35.32 12.93c.37.07.73.16 1.1.22A1.81 1.81 0 0138.06 15c0 1.2.06 2.39.06 3.59a.88.88 0 00.58.91 6.84 6.84 0 011 .48.8.8 0 001-.06l2.84-2.06a1.9 1.9 0 012.68.22c.28.27.56.55.83.83a1.83 1.83 0 01.21 2.52c-.68.95-1.36 1.91-2.07 2.84a.91.91 0 00-.08 1.14 8.14 8.14 0 01.49 1 .74.74 0 00.79.5h3.47a1.92 1.92 0 012.12 1.8 11.3 11.3 0 01.14 1.53 1.55 1.55 0 01-1.21 1.68c-1.14.38-2.26.77-3.4 1.13a.82.82 0 00-.67.83 4.61 4.61 0 01-.17 1 .84.84 0 00.39 1l2.67 2a1.89 1.89 0 01.62 2.64c-.19.37-.38.74-.58 1.1a1.88 1.88 0 01-2.3 1l-3.35-1.06a.92.92 0 00-1.13.33 8.62 8.62 0 01-.72.76.82.82 0 00-.24 1c.37 1.12.72 2.24 1.07 3.37a1.84 1.84 0 01-.93 2.3q-.59.33-1.2.63a1.86 1.86 0 01-2.5-.59l-2-2.78a.87.87 0 00-1-.42 10.19 10.19 0 01-1.23.21.66.66 0 00-.59.5c-.37 1.16-.77 2.31-1.15 3.47a1.81 1.81 0 01-2.22 1.31l-1.15-.2a1.79 1.79 0 01-1.6-1.84v-3.48a2.07 2.07 0 00-.14-.69.65.65 0 01.21-.86.62.62 0 01.86.3 3 3 0 01.27 1.08v3.47c0 .6.18.8.78.9l1 .19a.65.65 0 00.86-.5c.38-1.12.76-2.24 1.12-3.36a2 2 0 011.81-1.47 6.74 6.74 0 001-.17 1.8 1.8 0 012.08.75l2.06 2.85c.35.48.6.54 1.12.27l1-.53a.72.72 0 00.42-1c-.33-1.06-.65-2.12-1-3.16a2 2 0 01.61-2.41 4.69 4.69 0 00.63-.7 1.8 1.8 0 012.06-.6l3.38 1.07c.55.18.76.09 1-.44.19-.35.38-.7.56-1.07A.7.7 0 0049 39c-.93-.7-1.87-1.4-2.82-2.08a1.86 1.86 0 01-.78-2.11c.1-.4.16-.82.22-1.23A1.75 1.75 0 0146.83 32c1.12-.39 2.24-.75 3.36-1.13.65-.22.76-.41.64-1.09-.06-.31-.11-.62-.16-.93-.1-.54-.31-.72-.88-.72h-3.32a2 2 0 01-2.12-1.36 7.09 7.09 0 00-.44-.87 1.85 1.85 0 01.09-2.1c.68-.95 1.37-1.89 2.06-2.84.37-.51.36-.73-.09-1.18l-.7-.78a.71.71 0 00-1.1-.09c-.91.64-1.84 1.27-2.74 1.94A2 2 0 0139 21a5.16 5.16 0 00-.78-.39 2 2 0 01-1.29-2v-3.36c0-.67-.15-.83-.8-.95-.35-.07-.69-.14-1-.19s-.69 0-.85.52c-.37 1.11-.75 2.21-1.11 3.33a1.92 1.92 0 01-1.71 1.47c-.42.05-.84.16-1.26.22a1.8 1.8 0 01-1.97-.65c-.71-1-1.41-1.93-2.11-2.89-.36-.5-.61-.55-1.15-.27l-1 .53a.62.62 0 00-.36.89c.34 1.1.67 2.21 1 3.3a1.93 1.93 0 01-.61 2.29c-.3.25-.57.53-.85.81a1.71 1.71 0 01-1.8.46c-1.18-.35-2.35-.73-3.52-1.1-.58-.18-.77-.1-1 .41s-.38.71-.56 1.07a.72.72 0 00.25 1l2.81 2a1.83 1.83 0 01.83 2.22 10.5 10.5 0 00-.2 1.12 1.85 1.85 0 01-1.39 1.65l-3.39 1.13c-.46.15-.59.35-.52.82s.13.74.2 1.11c.11.58.29.75.88.76 1.15 0 2.3 0 3.44.06a4.24 4.24 0 011.16.26.57.57 0 01.33.81.6.6 0 01-.82.29 2.82 2.82 0 00-.8-.15c-1.15 0-2.29 0-3.44-.07a1.8 1.8 0 01-1.8-1.52c-.1-.44-.24-.86-.37-1.3v-.9a2.26 2.26 0 011.69-1.44c1-.3 2.05-.68 3.08-1a.71.71 0 00.56-.67 9.19 9.19 0 01.19-1.15.87.87 0 00-.4-1c-.94-.67-1.88-1.35-2.81-2a1.85 1.85 0 01-.6-2.53l.54-1a2 2 0 012.56-1.06c1 .33 2.09.65 3.12 1a.91.91 0 001.11-.28 5.06 5.06 0 01.71-.68.9.9 0 00.31-1.13c-.37-1.12-.72-2.24-1.07-3.37a1.85 1.85 0 01.93-2.27l1.11-.58a1.87 1.87 0 012.58.6l2 2.73a.85.85 0 00.83.41c.39 0 .78-.08 1.17-.09a.86.86 0 00.86-.69c.31-1 .68-1.92 1-2.9a2.35 2.35 0 011.53-1.76zm3.08 19.36a11.16 11.16 0 01-.08 1.42 6.16 6.16 0 01-6.19 5.2 5.89 5.89 0 00-4.33 1.79l-8.57 8.58a1.6 1.6 0 00-.25.27.56.56 0 000 .76.52.52 0 00.74.11 2.47 2.47 0 00.42-.37l8.43-8.55a4.78 4.78 0 013.08-1.41 14.7 14.7 0 002.57-.34 7.3 7.3 0 005.3-7.55 1.34 1.34 0 00-.8-1.26 1.27 1.27 0 00-1.4.38c-.78.8-1.58 1.59-2.38 2.38a2 2 0 01-2.9 0c-.24-.22-.47-.46-.7-.69a2 2 0 010-3.2c.78-.79 1.58-1.56 2.34-2.36a1.16 1.16 0 00-.62-2 5.92 5.92 0 00-2.58.12 7.49 7.49 0 00-5.64 7.19 4.94 4.94 0 01-1.53 3.68c-2.83 2.8-5.63 5.62-8.44 8.43a2.7 2.7 0 00-.28.31.57.57 0 00.12.85c.28.21.56.16.9-.17 2.91-2.91 5.82-5.81 8.72-8.73A5.65 5.65 0 0026 33.75c.09-.68.06-1.37.19-2a6.06 6.06 0 015.13-5 10.61 10.61 0 011.39-.07v.11L30.52 29a3.4 3.4 0 00-1.08 2.41 4.69 4.69 0 003.12 4 3.59 3.59 0 00.85.14 3.3 3.3 0 002.61-1l2.26-2.27zm2 7.61a10.75 10.75 0 10-18.22-5.69c.08.5.35.71.75.64a.63.63 0 00.47-.81 9.9 9.9 0 01-.06-3.12 9.5 9.5 0 1110.73 10.79 9.8 9.8 0 01-3-.07.65.65 0 00-.84.49.61.61 0 00.6.71c.62.09 1.25.14 1.59.18a11 11 0 008.02-3.12z" fill="#bf2850"/></g></svg>