<svg xmlns="http://www.w3.org/2000/svg" viewBox="0 0 24.92 24.93"><defs><style>.cls-1{fill:#fff}</style></defs><g id="Слой_2" data-name="Слой 2"><g id="Подвал"><path class="cls-1" d="M24.91 4.8A5.61 5.61 0 0022 .16a.79.79 0 00-.8-.07.79.79 0 00-.32.72v3.51a.61.61 0 01-.38.59A2.24 2.24 0 0118 4.9c-.24 0-.39-.24-.38-.57V.73a.73.73 0 00-.32-.64A.65.65 0 0017 0a.76.76 0 00-.4.11 5.59 5.59 0 00-3 4.64 5.58 5.58 0 002.39 5 .68.68 0 01.32.62V22a2.93 2.93 0 105.85-.12V10.37a.73.73 0 01.33-.66 5.59 5.59 0 002.42-4.91zm-3.59 4.12a.76.76 0 00-.44.75v12.25a1.62 1.62 0 01-1.6 1.69 1.62 1.62 0 01-1.61-1.53V9.81a1 1 0 00-.56-1 4.26 4.26 0 01-2-2.74 4.34 4.34 0 01.61-3.42l.13-.17.55-.68v3.37a.63.63 0 00.41.64h.11c.7.29 1.42.59 2.14.85a.91.91 0 00.54 0c.6-.21 1.19-.45 1.77-.69l.44-.18a.65.65 0 00.44-.67V1.84l.45.56a4.11 4.11 0 01.9 2 4.27 4.27 0 01-2.28 4.52z"/><path class="cls-1" d="M7.79 21.06a.65.65 0 01.26.06c.47.21.95.41 1.43.59a.52.52 0 01.35.48c0 .29 0 .58.07.87v.43a1.55 1.55 0 001.48 1.42h2.11a1.63 1.63 0 001.07-.5 1.46 1.46 0 00.41-1 .64.64 0 00-.36-.56.54.54 0 00-.61 0 2.78 2.78 0 00-.33.39c0 .08-.12.16-.18.25l-.08.09h-2.15l-.18-2.27a.64.64 0 00-.49-.65A9.53 9.53 0 018 19.6a.62.62 0 00-.77.07l-.23.2-1.5 1.28-1.72-1.71.55-.65c.29-.34.59-.68.88-1a.67.67 0 00.08-.91 8.8 8.8 0 01-1-2.41.68.68 0 00-.71-.6l-2.24-.18v-2.4l2.21-.18c.47 0 .63-.17.75-.63a8.93 8.93 0 011-2.31.73.73 0 00-.09-1L3.77 5.48l1.71-1.71.65.56 1 .88a.67.67 0 00.91.08 8.85 8.85 0 012.41-1 .69.69 0 00.61-.73c0-.48.07-.95.11-1.43l.06-.8h1.21a.66.66 0 00.65-.66.64.64 0 00-.63-.67h-1a1.56 1.56 0 00-1.53 1.48v.13c0 .39-.06.77-.1 1.15a.63.63 0 01-.35.44c-.48.22-1 .42-1.45.6a.58.58 0 01-.55-.08c-.22-.17-.43-.35-.64-.53l-.32-.28A1.55 1.55 0 004.31 3L3 4.3a1.57 1.57 0 00-.08 2.22l.27.32c.18.2.36.41.52.62a.63.63 0 01.1.54c-.11.27-.21.53-.32.79s-.19.45-.28.68a.5.5 0 01-.48.35c-.26 0-.51 0-.77.06h-.5A1.56 1.56 0 000 11.46v2A1.56 1.56 0 001.47 15h.44c.28 0 .55.05.83.06a.5.5 0 01.47.36c.19.48.38 1 .59 1.43a.5.5 0 01-.09.61l-.8.94A1.55 1.55 0 003 20.59c.44.46.9.91 1.36 1.36a1.55 1.55 0 002.13.05c.32-.26.64-.53.94-.81a.56.56 0 01.36-.13zm-.19.34zm-4.02-4.42z"/><path class="cls-1" d="M6.4 13.23a6.15 6.15 0 005.94 5.34 6.32 6.32 0 002.12-.34.66.66 0 00.47-.64.6.6 0 00-.42-.59 1.18 1.18 0 00-.51 0 5.12 5.12 0 01-2.18.18 4.79 4.79 0 01-3.18-7.6 4.81 4.81 0 013-1.85.65.65 0 00.54-.57.61.61 0 00-.38-.66 1.12 1.12 0 00-.32 0 1.33 1.33 0 00-.28 0 6.11 6.11 0 00-4.8 6.73z"/></g></g></svg>