<svg xmlns="http://www.w3.org/2000/svg" viewBox="0 0 64.53 64.53"><g data-name="Слой 2"><path d="M49.49 49c-.18-.6-.33-1.21-.47-1.81a12.63 12.63 0 00-1.56-4.24v-.17l.06-.08.27-.19A4.77 4.77 0 0049.87 38a1 1 0 00-.7-.92 1 1 0 00-1.15.22l-.27.26-.89.79a1.27 1.27 0 01-1.92-1.65c.26-.39.53-.8.82-1.21a1.09 1.09 0 00.12-1.28 1.14 1.14 0 00-1.2-.55 4.84 4.84 0 00-4.39 3.85 7.71 7.71 0 00-.12 1.1v.7H40l-.5-.06-1.1-.11a1.75 1.75 0 01-1.74-1.81v-1.75a.83.83 0 01.29-.66l.51-.53c.59-.62 1.21-1.26 1.74-1.93a5.72 5.72 0 001.3-3.93v-3.91h1.46a.61.61 0 000-1.22h-.59l-.09-.19v-.29a9.13 9.13 0 00-5.15-7.53.64.64 0 01-.28-.44 2.18 2.18 0 00-2.19-2.07h-2.99a2.14 2.14 0 00-2.22 2 .71.71 0 01-.44.61 9 9 0 00-5 7.51.51.51 0 01-.15.37.49.49 0 01-.35.08.78.78 0 00-.26 0 .59.59 0 00-.55.59.6.6 0 00.56.61h1.48v4.08a5.78 5.78 0 001 3.36A15.89 15.89 0 0027.3 35a.83.83 0 01.28.51v1.87A1.79 1.79 0 0126 39.1l-1.54.16-1.86.19a7.94 7.94 0 00-6.89 5.78c-.25.89-.49 1.79-.72 2.69l-.27 1c-.14.54-.07.71.39 1h.36a1.28 1.28 0 00.5-.8l.26-1.12a29.34 29.34 0 01.91-3.13 6.36 6.36 0 014.66-4l.23-.05h.26v2.66a.5.5 0 01-.28.35 3.71 3.71 0 00-2.36 2.52c-.19.58-.4 1.16-.6 1.72l-.25.69c-.21.59-.17.76.31 1.1h.36a1.19 1.19 0 00.51-.72c.3-.89.62-1.78.94-2.64a2.29 2.29 0 012.22-1.62h12.62l-.21.29a1.4 1.4 0 01-.13.18A2.69 2.69 0 0037 49.84a.59.59 0 01.14.06h.72A3.78 3.78 0 0040 48.42c.54-.66 1.1-1.3 1.69-2l.79-.9.13-.15.09.18.2.33a4.13 4.13 0 01.36.69c.29.75.58 1.57.94 2.64a1.12 1.12 0 00.5.68h.36c.48-.35.52-.51.31-1.1l-.22-.62c-.19-.5-.37-1-.53-1.51a4.65 4.65 0 00-1.18-2l-.1-.09.32-.37c.2-.24.4-.46.61-.68a.6.6 0 01.41-.14H45a2 2 0 00.56 0 .65.65 0 01.85.41c.08.19.17.38.26.57a11 11 0 01.63 1.5c.3 1 .54 1.92.78 2.87l.11.47a1.24 1.24 0 00.49.77h.36c.5-.34.58-.53.45-.97zM24.31 23.38v-.11c-.4-2.11 1.87-5.67 4.25-6.68l.16-.07.68 3c.07.35.15.71.24 1.06a.63.63 0 00.73.55.56.56 0 00.39-.25.68.68 0 00.08-.55c-.21-1-.43-2-.65-3l-.45-2a1 1 0 01.14-.91 1.08 1.08 0 01.86-.35h2.76a.94.94 0 011 1.23l-.39 1.7c-.24 1.1-.48 2.19-.71 3.29a1 1 0 000 .54.55.55 0 00.6.38.6.6 0 00.57-.52c.14-.55.26-1.11.38-1.66l.54-2.44.16.06A7.69 7.69 0 0140 23.24v.14zM26 31.67a4.93 4.93 0 01-1-3.11v-3.91h14.19v4.8a4.7 4.7 0 01-1.26 2.63 21.93 21.93 0 01-3 3l-.57.5a2.28 2.28 0 01-1.53.66h-1.19a1.72 1.72 0 01-1.66-.63l-.55-.47A18.73 18.73 0 0126 31.67zm1.53 8.17a3.32 3.32 0 001.32-3.26v-.32l.44.35.26.22a2.47 2.47 0 001.64.61H33a2.61 2.61 0 001.79-.69 2.18 2.18 0 01.21-.17l.44-.34v.33a3.28 3.28 0 001.3 3.25l.14.1-.12.12a6.79 6.79 0 01-4.5 1.4 8 8 0 01-4.73-1.38l-.18-.06zm1.17 3.85h-5.14v-3l.61-.06c.43 0 .89-.1 1.33-.13a.71.71 0 01.41.19 11.45 11.45 0 004.55 2A9.42 9.42 0 0037 41.41a7.94 7.94 0 001.15-.72 1.4 1.4 0 011.23-.19l.32.05-.27.31c-.07.1-.14.17-.2.25l-.48.55c-.52.6-1 1.2-1.56 1.79a.73.73 0 01-.49.25zm17.74-1.83a3.48 3.48 0 01-2 .21.8.8 0 00-.85.32l-3.36 3.88-1.61 1.86a1.42 1.42 0 01-1.07.55 1.18 1.18 0 01-.41-.07 1.48 1.48 0 01-1.14-1.2 1.42 1.42 0 01.4-1.22l1.38-1.6 3.47-4a1 1 0 00.26-1.12 3.58 3.58 0 01.4-2.9A3.48 3.48 0 0144.29 35l.32-.06-.7 1a2.52 2.52 0 003.78 3.29l.89-.79v.3a3.49 3.49 0 01-2.17 3.12z" fill="#bf2850"/><circle cx="32.27" cy="32.27" r="31.67" fill="none" stroke="#bf2850" stroke-miterlimit="10" stroke-width="1.2"/></g></svg>