<svg xmlns="http://www.w3.org/2000/svg" viewBox="0 0 20.73 18.18"><defs><style>.cls-1{fill:#fff}</style></defs><g id="Слой_2" data-name="Слой 2"><g id="Подвал"><path class="cls-1" d="M2.5 18.18A3.37 3.37 0 011.36 18l-.82-.28.63-.6a3.26 3.26 0 001.06-2.38A8.43 8.43 0 010 9.09C0 4.08 4.65 0 10.36 0s10.37 4.08 10.37 9.09-4.65 9.09-10.37 9.09a11.51 11.51 0 01-4.87-1.07 5.46 5.46 0 01-2.99 1.07zm2.86-2.31l.31.16a10.54 10.54 0 004.69 1.1c5.14 0 9.31-3.61 9.31-8s-4.17-8-9.31-8-9.31 3.61-9.31 8a7.4 7.4 0 002.09 5.07l.14.14v.2a4.31 4.31 0 01-.74 2.63 4.68 4.68 0 002.56-1.09z"/><circle class="cls-1" cx="6.6" cy="9.55" r="1.02"/><circle class="cls-1" cx="10.46" cy="9.55" r="1.02"/><circle class="cls-1" cx="14.32" cy="9.55" r="1.02"/></g></g></svg>