<svg xmlns="http://www.w3.org/2000/svg" viewBox="0 0 70.75 75.11"><defs><style>.cls-4{fill:#fff}</style></defs><g id="Слой_2" data-name="Слой 2"><g id="Онлайн_диагностика" data-name="Онлайн диагностика"><circle cx="35.67" cy="39.97" r="28.18" fill="#bf2850"/><text transform="translate(32.04 44.38)" fill="#fff" font-size="33.28" font-family="Magistral-Book,Magistral">1</text><text transform="translate(21.47 57.7)" font-size="14.65" font-family="Magistral-Bold,Magistral" font-weight="700" fill="#fff">мин</text><path class="cls-4" d="M35.3 75.11A35.38 35.38 0 015.19 21.3a.8.8 0 111.37.83A33.77 33.77 0 1028.36 6.7.8.8 0 1128 5.14a35.37 35.37 0 117.27 70z"/><path class="cls-4" d="M28 6.75a.77.77 0 01-.55-.22.79.79 0 010-1.13L32.41.25a.8.8 0 011.13 0 .79.79 0 010 1.13l-5 5.16a.82.82 0 01-.54.21z"/><path class="cls-4" d="M34.65 9.45a.8.8 0 01-.3-.06l-6.62-2.7a.8.8 0 01.6-1.48L35 7.91a.79.79 0 01.44 1 .8.8 0 01-.79.54z"/></g></g></svg>