<svg xmlns="http://www.w3.org/2000/svg" viewBox="0 0 64.53 64.53"><g data-name="Слой 2"><circle cx="32.27" cy="32.27" r="31.67" fill="none" stroke="#bf2850" stroke-miterlimit="10" stroke-width="1.2"/><path d="M12.78 38.42a.8.8 0 01.79-.44h5.86a.63.63 0 01.61.64.61.61 0 01-.65.59h-2.67v1.43H20a.38.38 0 00.41-.27 4 4 0 017.27 0 .39.39 0 00.4.28h12.74v-4.52a1 1 0 01.31-.7c.38-.31.91 0 .92.57v4.34a1 1 0 00.11.32c.1-.08.23-.15.28-.25a4 4 0 017.25-.09.49.49 0 00.55.36h1.22v-2.79h-.78A1.94 1.94 0 0148.85 36v-1.33a.62.62 0 01.71-.69h1.79a1.77 1.77 0 00-1.62-1.38h-7.66v.67a.63.63 0 01-.59.65.64.64 0 01-.66-.63V21.94H16.69v11.35a.62.62 0 01-.6.64.63.63 0 01-.64-.61 2 2 0 010-.35V22.2c0-1.1.48-1.58 1.56-1.58h23.5c1.1 0 1.56.46 1.56 1.56v1.08h4.45a2.74 2.74 0 012.85 3.41c0 .21-.25.39-.43.65.3 1.2.62 2.5 1 3.79a.46.46 0 00.28.25 3.3 3.3 0 012.56 3.31v6.4c0 .61-.21.82-.83.82h-1.84a4.06 4.06 0 01-1.65 3.24 3.86 3.86 0 01-2.56.76 4 4 0 01-3.76-4H28.07a4 4 0 01-1.78 3.3 3.84 3.84 0 01-2.55.66 4 4 0 01-3.64-4h-2.55c-1.64.08-2.22-.36-2.11-2.14v-.55h-1.82a.82.82 0 01-.84-.42zm35.84-7.13a.71.71 0 000-.15c-.3-1.22-.62-2.44-.91-3.67-.06-.25-.21-.25-.4-.25H42.4a1.54 1.54 0 00-.3 0v4zm-2.48 13.37A2.71 2.71 0 1043.41 42a2.73 2.73 0 002.73 2.66zm-22 0A2.71 2.71 0 1021.37 42a2.72 2.72 0 002.72 2.66zm24.01-18.72a1.34 1.34 0 00-1.4-1.4H42.1v1.38zm2 9.3c-.15 1.22.18 1.54 1.36 1.36v-1.36zm-11.51 4c.5 0 .78-.23.78-.62s-.29-.62-.77-.63h-8.9a1.83 1.83 0 00-.47 0 .56.56 0 00-.45.6.57.57 0 00.52.59 2.55 2.55 0 00.39 0h8.9zm-16-2.67c.47 0 .75-.23.76-.61s-.29-.64-.77-.64h-7.74c-.48 0-.78.25-.78.63s.29.62.79.62h7.72zm23.49 4.1A1.27 1.27 0 0044.84 42a1.3 1.3 0 001.3 1.28 1.32 1.32 0 001.28-1.32 1.29 1.29 0 00-1.31-1.3zm-22 0A1.3 1.3 0 0022.79 42a1.32 1.32 0 001.3 1.3 1.3 1.3 0 001.28-1.31 1.27 1.27 0 00-1.29-1.33z" fill="#bf2850"/></g></svg>