<svg xmlns="http://www.w3.org/2000/svg" viewBox="0 0 69.19 69.19"><defs><style>.cls-2{mix-blend-mode:screen}.cls-3{fill:#fff}</style></defs><g style="isolation:isolate"><g id="Слой_2" data-name="Слой 2"><g id="Титул"><g class="cls-2"><path class="cls-3" d="M34.59 69.19a34.6 34.6 0 1134.6-34.6 34.64 34.64 0 01-34.6 34.6zm0-68A33.4 33.4 0 1068 34.59 33.43 33.43 0 0034.59 1.2z"/></g><g class="cls-2"><path class="cls-3" d="M51.57 17.83v-6.35c0-.79-.42-1.29-1.07-1.29-.65 0-1 .49-1.06 1.31s0 1.42 0 2.16v1.44h-.6a.62.62 0 01-.34-.1l-.5-.39-.13-.08A24.2 24.2 0 0034 10.22a26.33 26.33 0 00-2.79.14 24.36 24.36 0 00-12.51 43.4 1.35 1.35 0 001 .34.91.91 0 00.62-.39 1.07 1.07 0 00-.25-1.6l-.51-.43-.47-.41A22.07 22.07 0 0116 21.34a22.58 22.58 0 0129.4-5.82l.58.4.89.61-.72.24a6.75 6.75 0 01-2 .26h-.26c-.59 0-1.3.21-1.32 1a1 1 0 00.25.73 1.52 1.52 0 001.09.38h6.35c.95.03 1.3-.32 1.31-1.31z"/><path class="cls-3" d="M37.5 33.88c.35-.61 1.13-1.27 2.81-.92a2.16 2.16 0 011.57 2 16.69 16.69 0 01.18 2.31v5.17a1.54 1.54 0 00.38 1.11.93.93 0 00.72.24c.89 0 1-.84 1-1.32v-6.24a11 11 0 00-.42-2.55 3.9 3.9 0 00-3.86-3 9.63 9.63 0 00-2 .25l-1 .17-.43.07v-4.5a1.65 1.65 0 00-.39-1.2.92.92 0 00-.73-.25c-.87 0-1.05.78-1.05 1.42v15.73c0 .64.18 1.4 1.05 1.42a1 1 0 00.73-.25 1.66 1.66 0 00.39-1.2v-1.8c0-1.22 0-2.48.07-3.72a7.07 7.07 0 01.98-2.94zm-10.18 8.48c0 .52.14 1.4 1.07 1.43a1 1 0 00.77-.27 1.28 1.28 0 00.35-1V25.39a1.07 1.07 0 00-1.18-1.2H24.8a1.34 1.34 0 00-.94.36 1 1 0 00-.23.69c0 .44.16 1 1.19 1.09h2.5v16zm8.57 14.43h-2.38a5.52 5.52 0 00-.58 0 .94.94 0 00-1 1 .92.92 0 00.89 1.21 18.27 18.27 0 003.34-.1.91.91 0 00.84-1.16 1 1 0 00-1.11-.95zm20.25-20.58v.14a7.31 7.31 0 000 1 1 1 0 001.07 1 .87.87 0 001-.85c.12-1.15.18-2.15.19-3.07a1 1 0 00-1-1.1.9.9 0 00-.68.21 1.31 1.31 0 00-.43.91v1.74zm-.6-7.32a1 1 0 001.3.79 1.09 1.09 0 00.69-.44 1.07 1.07 0 00.08-.82 17.19 17.19 0 00-1-3 1.61 1.61 0 00-.58-.51c-.06 0-.1-.07-.15-.1a1.36 1.36 0 00-1.07.45 1.21 1.21 0 00-.13 1.08c.32.9.58 1.78.86 2.55zm.12 12.98l-.13.06c-.18.09-.45.21-.53.36a19.7 19.7 0 00-1.4 3.05.91.91 0 00.59 1.2.93.93 0 001.3-.37 19.59 19.59 0 001.36-3 .84.84 0 00-.1-.81 1.39 1.39 0 00-1.09-.49zm-6.94 9.37l-.26.28a1 1 0 00-.07 1.48.94.94 0 001.47.1A28.66 28.66 0 0052 51.08a2 2 0 00.32-.59l.13-.28a2 2 0 01-.17-.23c-.17-.24-.36-.51-.53-.57a1.44 1.44 0 00-.37 0 1.67 1.67 0 00-.86.23 13.82 13.82 0 00-1.8 1.6zm-3.42 4.6l.08-.14a1.3 1.3 0 00-.5-1 .91.91 0 00-.56-.18 1.31 1.31 0 00-.43.08c-.84.29-1.62.63-2.56 1-.67.3-.95.85-.71 1.4a1 1 0 001.47.62 17.18 17.18 0 002.69-1.18 1.82 1.82 0 00.52-.6zM27.2 58a1.36 1.36 0 001-.6 1.46 1.46 0 00-.19-1.1 19.09 19.09 0 00-2.58-1.13l-1-.37-.27.23c-.27.23-.55.46-.59.65a1.46 1.46 0 00.33 1.12 12.2 12.2 0 003.3 1.2z"/></g></g></g></g></svg>