<svg xmlns="http://www.w3.org/2000/svg" viewBox="0 0 64.53 64.53"><g data-name="Слой 2"><path d="M25.5 52a3.43 3.43 0 01-.48-.53c-.51-.85-1-1.7-1.49-2.56a.38.38 0 00-.5-.24c-1 .2-2 .38-3.07.53a1 1 0 01-.68-.21c-.24-.18-.18-.47-.05-.74l3.3-7.1c.06-.13.12-.25.19-.43-.29-.16-.56-.33-.84-.46l-1.8-.78a4 4 0 01-2.72-4.78 15.4 15.4 0 00.24-2.14 3.78 3.78 0 00-.29-1.44c-.31-.73-.71-1.42-1.06-2.13a3.92 3.92 0 01.84-4.84l1.68-1.58a2.89 2.89 0 00.9-1.53c.18-.84.38-1.67.6-2.5a3.9 3.9 0 013.62-2.93l2.58-.15a2.74 2.74 0 001.5-.61l1.82-1.36a3.93 3.93 0 014.94 0l1.88 1.41a2.77 2.77 0 001.64.58c.84 0 1.69.09 2.53.15a4 4 0 013.56 3.16c.18.76.36 1.52.53 2.28a2.71 2.71 0 00.85 1.47c.59.54 1.17 1.09 1.74 1.64a3.94 3.94 0 01.85 4.78c-.29.59-.57 1.2-.91 1.78a3.49 3.49 0 00-.4 2.38c.11.67.16 1.35.25 2a3.91 3.91 0 01-2.25 4.1c-.79.37-1.6.69-2.4 1-.23.11-.44.24-.69.38l1.5 3.23c.66 1.43 1.32 2.85 2 4.28a.71.71 0 010 .79.72.72 0 01-.81.21c-1-.18-2-.34-3-.53a.35.35 0 00-.43.19c-.5.88-1 1.76-1.52 2.63a3 3 0 01-.49.52h-.38a3.9 3.9 0 01-.46-.63q-1.43-3-2.82-6a.66.66 0 00-.46-.4c-.63-.18-1.26-.37-1.88-.57a2.77 2.77 0 00-1.73 0c-.56.18-1.13.35-1.7.5a.72.72 0 00-.51.45c-.93 2-1.87 4-2.82 6a3.56 3.56 0 01-.47.63zm10.87-8a2.83 2.83 0 002.53-1.24c.43-.65.86-1.3 1.28-2a4.21 4.21 0 012-1.72c.74-.3 1.47-.61 2.19-.94A2.67 2.67 0 0046 35.23c-.09-.68-.15-1.37-.25-2a4.51 4.51 0 01.52-3c.33-.59.62-1.21.93-1.81a2.69 2.69 0 00-.6-3.42c-.61-.59-1.24-1.16-1.85-1.75a3.65 3.65 0 01-1-1.8c-.2-.85-.39-1.7-.6-2.54a2.65 2.65 0 00-2.39-2.11c-.83-.06-1.67-.12-2.5-.15a4 4 0 01-2.35-.83c-.63-.48-1.27-.95-1.91-1.42a2.67 2.67 0 00-3.41 0l-1.9 1.42a3.89 3.89 0 01-2.09.81l-2.6.17a2.68 2.68 0 00-2.59 2.2c-.18.76-.36 1.52-.53 2.28a4.09 4.09 0 01-1.22 2.14c-.59.54-1.16 1.08-1.74 1.63a2.67 2.67 0 00-.58 3.36c.36.73.74 1.46 1.1 2.19a3.75 3.75 0 01.41 2c-.09.85-.19 1.7-.3 2.56a2.69 2.69 0 001.72 3l2.15.92a4 4 0 011.86 1.55c.42.66.85 1.31 1.28 2a2.67 2.67 0 003.23 1.2l2.21-.69a4 4 0 012.16-.08c.37.09.73.22 1.1.32zM41 41.75c-.4.62-.76 1.16-1.12 1.7a3.88 3.88 0 01-2.31 1.63c-.25.06-.51.09-.81.15L39 50l.16-.25c.39-.67.79-1.34 1.17-2a.72.72 0 01.89-.42c.31.08.63.12 1 .18l1.65.27zm-20.23 6l1.93-.34c1.36-.22 1.18-.37 1.92.9l1 1.69 2.23-4.81a4.08 4.08 0 01-3.43-2.07c-.21-.34-.43-.67-.65-1-.06-.09-.13-.17-.22-.29zm11.49-8.45a10.41 10.41 0 1110.42-10.41A10.42 10.42 0 0132.26 39.3zm0-1.23a9.18 9.18 0 10-9.19-9.19 9.18 9.18 0 009.21 9.19zm-1.37-9.27c1.45-1.42 2.87-2.81 4.31-4.17a2.92 2.92 0 011.06-.63 2 2 0 012.3.95 2.07 2.07 0 01-.34 2.51c-1.38 1.41-2.78 2.81-4.16 4.21l-1.55 1.56a2 2 0 01-3 0c-1-1-2.09-2.08-3.13-3.12a2.07 2.07 0 112.92-2.94c.53.55 1.09 1.13 1.59 1.63zm-4-.07a2.43 2.43 0 00.37.57c1 1 1.93 1.95 2.9 2.92.59.58 1 .58 1.56 0l4.63-4.66c.33-.34.68-.67 1-1a.83.83 0 00-.48-1.39.91.91 0 00-.84.36L31.65 30c-.56.57-.78.57-1.34 0s-1.31-1.33-1.93-2a.8.8 0 00-.94-.21.87.87 0 00-.51.94z" fill="#bf2850"/><circle cx="32.27" cy="32.27" r="31.67" fill="none" stroke="#bf2850" stroke-miterlimit="10" stroke-width="1.2"/></g></svg>